<svg width="645" height="95" viewBox="0 0 645 95" fill="none" xmlns="http://www.w3.org/2000/svg">
<g filter="url(#filter0_d_225_20540)">
<path d="M4.39062 89H2.39062V91H4.39062V89ZM4.39062 5.36363V3.36363H2.39062V5.36363H4.39062ZM58.5419 10.3867L57.5987 12.1504L57.6079 12.1552L58.5419 10.3867ZM73.0803 24.7617L71.323 25.7168L71.328 25.7258L73.0803 24.7617ZM73.1211 69.6428L74.8766 70.601L74.8783 70.5978L73.1211 69.6428ZM58.6644 84.0178L59.6048 85.7829L59.6108 85.7797L58.6644 84.0178ZM27.0966 69.7244H25.0966V71.7244H27.0966V69.7244ZM46.3313 67.7234L45.505 65.902L45.4986 65.905L46.3313 67.7234ZM53.0288 60.8217L51.2222 59.9636L51.2164 59.976L53.0288 60.8217ZM52.9879 33.5419L51.1813 34.4L51.1872 34.4122L52.9879 33.5419ZM46.1271 26.6403L45.3133 28.4672L45.3194 28.4699L46.1271 26.6403ZM27.0966 24.6392V22.6392H25.0966V24.6392H27.0966ZM36.571 87H4.39062V91H36.571V87ZM6.39062 89V5.36363H2.39062V89H6.39062ZM4.39062 7.36363H36.2443V3.36363H4.39062V7.36363ZM36.2443 7.36363C44.5875 7.36363 51.6824 8.98639 57.5987 12.1504L59.4851 8.62308C52.8778 5.0896 45.1076 3.36363 36.2443 3.36363V7.36363ZM57.6079 12.1552C63.5476 15.2922 68.1077 19.8005 71.323 25.7167L74.8375 23.8067C71.2465 17.1992 66.1143 12.1242 59.4759 8.61821L57.6079 12.1552ZM71.328 25.7258C74.5632 31.6058 76.2259 38.7319 76.2259 47.1818H80.2259C80.2259 38.2075 78.4581 30.3869 74.8325 23.7976L71.328 25.7258ZM76.2259 47.1818C76.2259 55.6338 74.576 62.7774 71.3638 68.6877L74.8783 70.5978C78.4726 63.9844 80.2259 56.1541 80.2259 47.1818H76.2259ZM71.3656 68.6845C68.1477 74.5797 63.6093 79.0915 57.7181 82.2558L59.6108 85.7797C66.1887 82.2466 71.2881 77.175 74.8766 70.601L71.3656 68.6845ZM57.724 82.2526C51.832 85.3916 44.8033 87 36.571 87V91C45.3273 91 53.0276 89.2869 59.6048 85.7829L57.724 82.2526ZM27.0966 71.7244H35.7543V67.7244H27.0966V71.7244ZM35.7543 71.7244C40.0994 71.7244 43.9252 71.025 47.164 69.5418L45.4986 65.905C42.9112 67.0898 39.6856 67.7244 35.7543 67.7244V71.7244ZM47.1577 69.5447C50.5838 67.9902 53.1399 65.313 54.8411 61.6675L51.2164 59.976C49.8684 62.8645 47.9595 64.7884 45.505 65.9021L47.1577 69.5447ZM54.8353 61.6798C56.5691 58.0298 57.3565 53.1441 57.3565 47.1818H53.3565C53.3565 52.872 52.5921 57.0796 51.2222 59.9636L54.8353 61.6798ZM57.3565 47.1818C57.3565 41.2164 56.5548 36.3257 54.7886 32.6716L51.1872 34.4122C52.5792 37.2922 53.3565 41.4947 53.3565 47.1818H57.3565ZM54.7945 32.6838C53.0579 29.0279 50.4383 26.3572 46.9348 24.8106L45.3194 28.4699C47.86 29.5914 49.8142 31.5218 51.1814 34.4L54.7945 32.6838ZM46.9409 24.8133C43.6206 23.3343 39.6498 22.6392 35.1009 22.6392V26.6392C39.2641 26.6392 42.6441 27.2782 45.3133 28.4672L46.9409 24.8133ZM35.1009 22.6392H27.0966V26.6392H35.1009V22.6392ZM25.0966 24.6392V69.7244H29.0966V24.6392H25.0966ZM141.337 5.36363H143.337V3.36363H141.337V5.36363ZM141.337 89V91H143.337V89H141.337ZM118.631 89H116.631V91H118.631V89ZM118.631 5.36363V3.36363H116.631V5.36363H118.631ZM139.337 5.36363V89H143.337V5.36363H139.337ZM141.337 87H118.631V91H141.337V87ZM120.631 89V5.36363H116.631V89H120.631ZM118.631 7.36363H141.337V3.36363H118.631V7.36363ZM236.313 32.9702L234.37 33.4466L234.744 34.9702H236.313V32.9702ZM234.639 29.1722L232.987 30.3002L232.993 30.3097L233 30.3192L234.639 29.1722ZM231.78 26.3544L230.625 27.9872L230.647 28.0032L230.67 28.0185L231.78 26.3544ZM227.859 24.5984L227.324 26.5254L227.345 26.5312L227.366 26.5366L227.859 24.5984ZM213.239 26.7219L212.118 25.0656L212.111 25.0709L213.239 26.7219ZM207.114 34.6037L205.265 33.8407L205.26 33.8533L207.114 34.6037ZM207.032 59.5966L205.164 60.3116L207.032 59.5966ZM212.994 67.6009L211.846 69.2385L212.994 67.6009ZM231.453 68.8668L230.655 67.033L230.647 67.0365L231.453 68.8668ZM236.64 64.5788L234.938 63.5278L236.64 64.5788ZM238.355 58.0447L238.562 56.0555L236.355 55.8256V58.0447H238.355ZM242.275 58.4531V60.4531L242.482 56.4639L242.275 58.4531ZM223.163 58.4531H221.163V60.4531H223.163V58.4531ZM223.163 42.2812V40.2812H221.163V42.2812H223.163ZM260.244 42.2812H262.244V40.2812H260.244V42.2812ZM255.384 73.4407L253.668 72.4142L253.666 72.4168L255.384 73.4407ZM242.071 85.8555L242.976 87.6391L242.979 87.6374L242.071 85.8555ZM201.233 84.957L200.253 86.7006L201.233 84.957ZM186.817 70.1737L185.055 71.1187L185.058 71.1245L186.817 70.1737ZM184.816 28.968L182.958 28.2285L182.955 28.2367L184.816 28.968ZM193.637 15.4506L195.036 16.8803L195.041 16.8751L193.637 15.4506ZM206.664 7.07883L207.377 8.94766L207.386 8.94419L206.664 7.07883ZM236.313 6.34375L235.68 8.24112L235.688 8.24354L235.695 8.24591L236.313 6.34375ZM247.625 12.3061L246.384 13.8742L246.391 13.8799L246.398 13.8855L247.625 12.3061ZM255.588 21.413L257.323 20.4178V20.4178L255.588 21.413ZM259.264 32.9702V34.9702H261.482L261.253 32.7635L259.264 32.9702ZM238.255 32.4937C237.849 30.8386 237.197 29.3396 236.277 28.0253L233 30.3192C233.605 31.1829 234.069 32.2159 234.37 33.4466L238.255 32.4937ZM236.29 28.0443C235.381 26.7126 234.243 25.5925 232.889 24.6903L230.67 28.0185C231.604 28.6409 232.372 29.3993 232.987 30.3002L236.29 28.0443ZM232.935 24.7216C231.594 23.7734 230.057 23.0939 228.353 22.6602L227.366 26.5366C228.657 26.8651 229.733 27.3563 230.625 27.9872L232.935 24.7216ZM228.395 22.6713C226.725 22.2075 224.922 21.9858 223 21.9858V25.9858C224.617 25.9858 226.053 26.1724 227.324 26.5254L228.395 22.6713ZM223 21.9858C218.859 21.9858 215.198 22.9813 212.118 25.0656L214.36 28.3783C216.671 26.8144 219.518 25.9858 223 25.9858V21.9858ZM212.111 25.0709C209.076 27.1459 206.807 30.1053 205.265 33.8407L208.962 35.3667C210.252 32.2413 212.067 29.9462 214.368 28.373L212.111 25.0709ZM205.26 33.8533C203.75 37.5834 203.031 41.9908 203.031 47.0185H207.031C207.031 42.3539 207.7 38.4848 208.968 35.3541L205.26 33.8533ZM203.031 47.0185C203.031 52.091 203.72 56.5394 205.164 60.3116L208.9 58.8816C207.676 55.6841 207.031 51.7471 207.031 47.0185H203.031ZM205.164 60.3116C206.618 64.1088 208.83 67.1239 211.846 69.2385L214.142 65.9632C211.877 64.3751 210.114 62.0541 208.9 58.8816L205.164 60.3116ZM211.846 69.2385C214.89 71.3725 218.595 72.3778 222.836 72.3778V68.3778C219.237 68.3778 216.38 67.5318 214.142 65.9632L211.846 69.2385ZM222.836 72.3778C226.472 72.3778 229.641 71.8506 232.259 70.6971L230.647 67.0365C228.692 67.8978 226.116 68.3778 222.836 68.3778V72.3778ZM232.251 70.7006C234.878 69.5573 236.951 67.8811 238.341 65.6298L234.938 63.5278C234.042 64.9792 232.657 66.1616 230.655 67.033L232.251 70.7006ZM238.341 65.6298C239.708 63.4173 240.355 60.8635 240.355 58.0447H236.355C236.355 60.2355 235.858 62.0377 234.938 63.5278L238.341 65.6298ZM238.148 60.034L242.068 60.4424L242.482 56.4639L238.562 56.0555L238.148 60.034ZM242.275 56.4531H223.163V60.4531H242.275V56.4531ZM225.163 58.4531V42.2812H221.163V58.4531H225.163ZM223.163 44.2812H260.244V40.2812H223.163V44.2812ZM258.244 42.2812V53.8793H262.244V42.2812H258.244ZM258.244 53.8793C258.244 61.2161 256.687 67.3654 253.668 72.4142L257.101 74.4671C260.561 68.6803 262.244 61.7886 262.244 53.8793H258.244ZM253.666 72.4168C250.649 77.4791 246.494 81.3566 241.163 84.0735L242.979 87.6374C248.974 84.5826 253.694 80.1836 257.102 74.4646L253.666 72.4168ZM241.166 84.0718C235.851 86.7677 229.704 88.1435 222.673 88.1435V92.1435C230.235 92.1435 237.019 90.6605 242.976 87.6391L241.166 84.0718ZM222.673 88.1435C214.823 88.1435 208.023 86.4787 202.213 83.2135L200.253 86.7006C206.749 90.3506 214.243 92.1435 222.673 92.1435V88.1435ZM202.213 83.2135C196.4 79.9469 191.86 75.2988 188.577 69.2228L185.058 71.1245C188.689 77.8444 193.76 83.0519 200.253 86.7006L202.213 83.2135ZM188.58 69.2286C185.335 63.1775 183.672 55.9067 183.672 47.3452H179.672C179.672 56.4257 181.438 64.3739 185.055 71.1187L188.58 69.2286ZM183.672 47.3452C183.672 40.6299 184.689 34.7599 186.678 29.6993L182.955 28.2367C180.75 33.8485 179.672 40.2299 179.672 47.3452H183.672ZM186.674 29.7076C188.704 24.6067 191.496 20.3428 195.036 16.8803L192.239 14.021C188.264 17.9093 185.175 22.657 182.958 28.2285L186.674 29.7076ZM195.041 16.8751C198.601 13.3668 202.708 10.7275 207.377 8.94764L205.952 5.21002C200.765 7.18724 196.188 10.1292 192.233 14.0261L195.041 16.8751ZM207.386 8.94419C212.069 7.1332 217.104 6.22017 222.51 6.22017V2.22017C216.644 2.22017 211.116 3.21291 205.943 5.21347L207.386 8.94419ZM222.51 6.22017C227.272 6.22017 231.658 6.90022 235.68 8.24112L236.945 4.44638C232.474 2.95583 227.657 2.22017 222.51 2.22017V6.22017ZM235.695 8.24591C239.761 9.56676 243.317 11.4465 246.384 13.8742L248.866 10.738C245.399 7.99288 241.413 5.89772 236.931 4.44159L235.695 8.24591ZM246.398 13.8855C249.493 16.2898 251.973 19.1289 253.854 22.4082L257.323 20.4178C255.175 16.6729 252.346 13.4408 248.852 10.7267L246.398 13.8855ZM253.854 22.4082C255.724 25.6681 256.867 29.2502 257.275 33.1768L261.253 32.7635C260.79 28.3047 259.483 24.1821 257.323 20.4178L253.854 22.4082ZM259.264 30.9702H236.313V34.9702H259.264V30.9702ZM323.437 5.36363H325.437V3.36363H323.437V5.36363ZM323.437 89V91H325.437V89H323.437ZM300.731 89H298.731V91H300.731V89ZM300.731 5.36363V3.36363H298.731V5.36363H300.731ZM321.437 5.36363V89H325.437V5.36363H321.437ZM323.437 87H300.731V91H323.437V87ZM302.731 89V5.36363H298.731V89H302.731ZM300.731 7.36363H323.437V3.36363H300.731V7.36363ZM361.811 23.6591H359.811V25.6591H361.811V23.6591ZM361.811 5.36363V3.36363H359.811V5.36363H361.811ZM434.503 5.36363H436.503V3.36363H434.503V5.36363ZM434.503 23.6591V25.6591H436.503V23.6591H434.503ZM409.347 23.6591V21.6591H407.347V23.6591H409.347ZM409.347 89V91H411.347V89H409.347ZM386.967 89H384.967V91H386.967V89ZM386.967 23.6591H388.967V21.6591H386.967V23.6591ZM363.811 23.6591V5.36363H359.811V23.6591H363.811ZM361.811 7.36363H434.503V3.36363H361.811V7.36363ZM432.503 5.36363V23.6591H436.503V5.36363H432.503ZM434.503 21.6591H409.347V25.6591H434.503V21.6591ZM407.347 23.6591V89H411.347V23.6591H407.347ZM409.347 87H386.967V91H409.347V87ZM388.967 89V23.6591H384.967V89H388.967ZM386.967 21.6591H361.811V25.6591H386.967V21.6591ZM484.117 89V91H485.603L486.032 89.578L484.117 89ZM459.615 89L457.715 88.3731L456.848 91H459.615V89ZM487.221 5.36363V3.36363H485.775L485.322 4.73674L487.221 5.36363ZM518.258 5.36363L520.157 4.73674L519.704 3.36363H518.258V5.36363ZM545.865 89V91H548.631L547.764 88.3731L545.865 89ZM521.362 89L519.447 89.578L519.876 91H521.362V89ZM503.066 28.3963L504.981 27.8183L504.552 26.3963H503.066V28.3963ZM502.413 28.3963V26.3963H500.928L500.498 27.8183L502.413 28.3963ZM479.544 56.0028V54.0028H477.544V56.0028H479.544ZM525.609 56.0028H527.609V54.0028H525.609V56.0028ZM525.609 72.9915V74.9915H527.609V72.9915H525.609ZM479.544 72.9915H477.544V74.9915H479.544V72.9915ZM484.117 87H459.615V91H484.117V87ZM461.514 89.6269L489.12 5.99052L485.322 4.73674L457.715 88.3731L461.514 89.6269ZM487.221 7.36363H518.258V3.36363H487.221V7.36363ZM516.359 5.99052L543.965 89.6269L547.764 88.3731L520.157 4.73674L516.359 5.99052ZM545.865 87H521.362V91H545.865V87ZM523.276 88.422L504.981 27.8183L501.152 28.9743L519.447 89.578L523.276 88.422ZM503.066 26.3963H502.413V30.3963H503.066V26.3963ZM500.498 27.8183L482.203 88.422L486.032 89.578L504.328 28.9743L500.498 27.8183ZM479.544 58.0028H525.609V54.0028H479.544V58.0028ZM523.609 56.0028V72.9915H527.609V56.0028H523.609ZM525.609 70.9915H479.544V74.9915H525.609V70.9915ZM481.544 72.9915V56.0028H477.544V72.9915H481.544ZM583.82 89H581.82V91H583.82V89ZM583.82 5.36363V3.36363H581.82V5.36363H583.82ZM606.526 5.36363H608.526V3.36363H606.526V5.36363ZM606.526 70.7045H604.526V72.7045H606.526V70.7045ZM640.34 70.7045H642.34V68.7045H640.34V70.7045ZM640.34 89V91H642.34V89H640.34ZM585.82 89V5.36363H581.82V89H585.82ZM583.82 7.36363H606.526V3.36363H583.82V7.36363ZM604.526 5.36363V70.7045H608.526V5.36363H604.526ZM606.526 72.7045H640.34V68.7045H606.526V72.7045ZM638.34 70.7045V89H642.34V70.7045H638.34ZM640.34 87H583.82V91H640.34V87Z" fill="#07D827"/>
</g>
<defs>
<filter id="filter0_d_225_20540" x="0.390625" y="0.220215" width="643.949" height="93.9233" filterUnits="userSpaceOnUse" color-interpolation-filters="sRGB">
<feFlood flood-opacity="0" result="BackgroundImageFix"/>
<feColorMatrix in="SourceAlpha" type="matrix" values="0 0 0 0 0 0 0 0 0 0 0 0 0 0 0 0 0 0 127 0" result="hardAlpha"/>
<feOffset/>
<feGaussianBlur stdDeviation="2"/>
<feComposite in2="hardAlpha" operator="out"/>
<feColorMatrix type="matrix" values="0 0 0 0 0.572549 0 0 0 0 0.890196 0 0 0 0 0.662745 0 0 0 1 0"/>
<feBlend mode="normal" in2="BackgroundImageFix" result="effect1_dropShadow_225_20540"/>
<feBlend mode="normal" in="SourceGraphic" in2="effect1_dropShadow_225_20540" result="shape"/>
</filter>
</defs>
</svg>
