<svg width="512" height="512" viewBox="0 0 512 512" fill="none" xmlns="http://www.w3.org/2000/svg">
<rect width="512" height="512" fill="#12A028"/>
<g clip-path="url(#clip0_264_1388)">
<path fill-rule="evenodd" clip-rule="evenodd" d="M405.83 106.12H281.5L159.851 230.78L173.169 244.429L259.182 156.287L260.497 157.37C262.334 158.885 264.058 160.539 265.754 162.216C270.93 167.332 275.638 172.946 279.879 178.895C293.554 198.069 301.927 220.337 304.112 243.995C304.126 244.159 304.146 244.322 304.161 244.486L304.327 246.325L304.46 248.501C304.938 256.297 304.719 264.136 303.813 271.893L303.633 273.432L319.927 290.129L321.006 284.162C322.653 275.064 323.47 265.812 323.47 256.559C323.47 237.984 320.158 219.565 313.61 202.241L313.167 201.071L405.826 106.122L405.83 106.12ZM360.453 125.335L304.559 182.598L303.327 180.449C295.506 166.804 285.592 154.457 274.038 143.955L272.542 142.597L289.389 125.337H360.453V125.335ZM146.533 238.205L132.85 252.225L149.497 269.282L175.32 295.368L198.661 272.337L222.92 295.839L284.898 230.053L284.311 228.186C282.864 223.592 281.16 219.08 279.222 214.681L277.367 210.47C259.149 229.142 242.405 247.774 224.186 266.443L222.893 267.77L198.535 244.171L175.689 267.901L163.179 255.263L146.533 238.205ZM281.488 407.002H405.83L268.522 266.299L255.661 280.422L290.569 316.193L289.924 317.448C268.206 359.719 226.604 386.477 179.948 387.697L176.828 387.779H130.971L196.848 320.273L229.476 353.7L231.554 352.441C235.341 350.15 239.024 347.673 242.553 344.985L245.451 342.78L196.848 292.975L98.9254 393.321V407.004L180.102 407.002C207.155 406.357 233.342 398.152 256.086 383.123L257.363 382.28L281.488 407.002ZM304.555 330.52L360.433 387.777H289.367L272.532 370.529L274.028 369.169C285.584 358.665 295.498 346.314 303.325 332.667L304.557 330.52H304.555ZM225.081 135.09L239.413 120.405L235.22 118.532C216.706 110.261 196.813 106.122 176.623 106.122H98.9274L98.9233 320.511L135.78 282.741L122.462 269.094L117.755 273.92L117.679 125.345L179.948 125.429C194.751 125.822 209.387 128.813 223.181 134.333L225.079 135.092L225.081 135.09Z" fill="white"/>
<path fill-rule="evenodd" clip-rule="evenodd" d="M259.521 165.698L176.028 250.174L154.326 228.215L275 106.12H416.099L320.078 203.267L308.551 214.93L302.79 176.841L305.724 173.871L342.089 137.088H287.796L281.141 143.817L259.517 165.696L259.521 165.698ZM226.284 143.539L228.127 142.028L226.535 143.637L226.284 143.537V143.539Z" fill="white"/>
<path fill-rule="evenodd" clip-rule="evenodd" d="M247.276 384.228L236.181 373.002C245.349 368.047 253.86 361.905 261.516 354.72L282.568 376.019H342.074L305.721 339.238L250.189 283.052L271.144 260.336L416.099 406.996H269.78L247.276 384.228ZM202.206 338.628L176.795 313.517L198.499 291.56L249.291 342.354C240.457 348.998 232.814 354.325 223.326 359.995L202.204 338.626L202.206 338.628Z" fill="white"/>
<path fill-rule="evenodd" clip-rule="evenodd" d="M126.114 133.008H126.112L126.114 137.225V292.645L93 326.744V106.117H126.114V133.008ZM126.114 406.998H93V399.212L126.114 365.553V407V406.998Z" fill="white"/>
</g>
<defs>
<clipPath id="clip0_264_1388">
<rect width="326" height="301" fill="white" transform="translate(93 106)"/>
</clipPath>
</defs>
</svg>
