<svg width="326" height="301" viewBox="0 0 326 301" fill="none" xmlns="http://www.w3.org/2000/svg">
<g clip-path="url(#clip0_264_1403)">
<path fill-rule="evenodd" clip-rule="evenodd" d="M312.83 0.119659H188.5L66.8513 124.78L80.1693 138.429L166.182 50.2873L167.497 51.3702C169.334 52.8852 171.058 54.5392 172.754 56.2159C177.93 61.3322 182.638 66.9457 186.879 72.895C200.554 92.0695 208.927 114.337 211.112 137.995C211.126 138.159 211.146 138.322 211.161 138.486L211.327 140.325L211.46 142.501C211.938 150.297 211.719 158.136 210.813 165.893L210.633 167.432L226.927 184.129L228.006 178.162C229.653 169.064 230.47 159.812 230.47 150.559C230.47 131.984 227.158 113.565 220.61 96.2415L220.167 95.0706L312.826 0.121707L312.83 0.119659ZM267.453 19.335L211.559 76.5985L210.327 74.4487C202.506 60.8038 192.592 48.4572 181.038 37.9545L179.542 36.5973L196.389 19.3371H267.453V19.335ZM53.5328 132.205L39.8502 146.225L56.4972 163.282L82.3204 189.368L105.661 166.337L129.92 189.839L191.898 124.053L191.311 122.186C189.864 117.592 188.16 113.08 186.222 108.681L184.367 104.47C166.149 123.142 149.405 141.774 131.186 160.443L129.893 161.77L105.535 138.171L82.6886 161.901L70.1795 149.263L53.5328 132.205ZM188.488 301.002H312.83L175.522 160.3L162.661 174.422L197.569 210.193L196.924 211.448C175.206 253.719 133.604 280.477 86.9478 281.697L83.8277 281.779H37.9706L103.848 214.273L136.476 247.7L138.554 246.441C142.341 244.15 146.024 241.673 149.553 238.985L152.451 236.78L103.848 186.975L5.92537 287.321V301.004L87.1016 301.002C114.155 300.357 140.342 292.152 163.086 277.123L164.363 276.28L188.488 301.002ZM211.555 224.52L267.433 281.777H196.367L179.532 264.529L181.028 263.169C192.584 252.665 202.498 240.314 210.325 226.667L211.557 224.52H211.555ZM132.081 29.0901L146.413 14.4053L142.22 12.5321C123.706 4.26121 103.813 0.121707 83.6233 0.121707H5.92737L5.92334 214.511L42.7802 176.741L29.462 163.094L24.7555 167.92L24.6786 19.3453L86.9478 19.4292C101.751 19.8223 116.387 22.8133 130.181 28.3327L132.079 29.0922L132.081 29.0901Z" fill="white"/>
<path fill-rule="evenodd" clip-rule="evenodd" d="M166.521 59.6982L83.0276 144.174L61.3262 122.215L182 0.119598H323.099L227.078 97.2671L215.551 108.93L209.79 70.8415L212.724 67.8709L249.089 31.0882H194.796L188.141 37.8173L166.517 59.6963L166.521 59.6982ZM133.284 37.539L135.127 36.0282L133.535 37.6371L133.284 37.5371V37.539Z" fill="white"/>
<path fill-rule="evenodd" clip-rule="evenodd" d="M154.276 278.228L143.181 267.002C152.349 262.047 160.86 255.905 168.516 248.72L189.568 270.019H249.074L212.721 233.238L157.189 177.052L178.144 154.336L323.099 300.996H176.78L154.276 278.228ZM109.206 232.628L83.7954 207.517L105.499 185.56L156.291 236.354C147.457 242.998 139.814 248.325 130.326 253.995L109.204 232.626L109.206 232.628Z" fill="white"/>
<path fill-rule="evenodd" clip-rule="evenodd" d="M33.1136 27.0075H33.1116L33.1136 31.2248V186.645L0 220.744V0.117035H33.1136V27.0075ZM33.1136 300.998H0V293.212L33.1136 259.553V301V300.998Z" fill="white"/>
</g>
<defs>
<clipPath id="clip0_264_1403">
<rect width="326" height="301" fill="white"/>
</clipPath>
</defs>
</svg>
