<svg width="115" height="22" viewBox="0 0 115 22" fill="none" xmlns="http://www.w3.org/2000/svg">
<g clip-path="url(#clip0_0_457)">
<path d="M16.5531 17.951C16.0918 16.9935 15.6352 16.0617 15.1992 15.1215C15.1298 14.9726 15.0988 14.7661 15.1457 14.6135C15.5189 13.3838 15.9146 12.1614 16.3046 10.9371C16.3168 10.8978 16.3393 10.8622 16.3665 10.8037C16.8325 11.9832 17.2892 13.139 17.7411 14.2965C17.7664 14.3614 17.7673 14.4491 17.7449 14.5158C17.3708 15.6359 16.99 16.7551 16.6103 17.8743C16.6037 17.8962 16.5813 17.9135 16.5531 17.951Z" fill="white"/>
<path d="M14.377 13.4244C13.8866 12.4012 13.4018 11.3981 12.9284 10.3921C12.8889 10.3081 12.8852 10.1857 12.9133 10.0961C13.2527 9.02901 13.6025 7.96375 14.0057 6.88477C14.1304 7.21639 14.256 7.54714 14.3789 7.87876C14.6967 8.73664 15.008 9.59638 15.3334 10.4515C15.4056 10.6425 15.4018 10.8078 15.3277 10.997C15.0249 11.7681 14.7361 12.5446 14.4407 13.3194C14.4295 13.3487 14.407 13.3751 14.377 13.4244Z" fill="white"/>
<path d="M15.7196 18.3287C15.263 17.3685 14.8242 16.4293 14.3648 15.4992C14.2916 15.3521 14.1491 15.1959 13.9991 15.1328C12.7923 14.6212 11.5771 14.1306 10.3638 13.6345C10.3254 13.619 10.2823 13.6117 10.2194 13.5952C10.8476 14.7016 11.4618 15.7852 12.0816 16.8669C12.1163 16.9272 12.1847 16.9848 12.2513 17.0112C13.3727 17.4516 14.497 17.8874 15.6212 18.3232C15.6446 18.3314 15.6727 18.326 15.7196 18.3287Z" fill="white"/>
<path d="M13.5509 13.8002C13.0614 12.776 12.5842 11.7701 12.0975 10.7697C12.0572 10.6857 11.9634 10.6053 11.8743 10.5687C10.8167 10.1366 9.75527 9.71264 8.64697 9.31982C8.82702 9.62586 9.00609 9.93194 9.188 10.237C9.65775 11.0255 10.1341 11.8113 10.5973 12.6033C10.7004 12.7806 10.8336 12.8838 11.0305 12.9496C11.8313 13.2191 12.6273 13.5033 13.4262 13.7801C13.458 13.791 13.4927 13.791 13.5509 13.8002Z" fill="white"/>
<path fill-rule="evenodd" clip-rule="evenodd" d="M8.96021 3.15332L10.3367 4.61054L11.701 5.99105L11.9129 7.90412L12.1764 9.86751L10.7999 8.4103L9.4356 7.0298L9.22372 5.11669L8.96021 3.15332Z" fill="white"/>
<path d="M9.29491 0.000913619V1.17948H7.08116C7.03243 1.17948 6.9855 1.20598 6.96024 1.24801L3.00054 7.93025L2.89834 8.10382L2.72956 7.99144L2.04227 7.53552L1.896 7.43872L1.98414 7.28976L5.91101 0.659635C6.151 0.253073 6.59921 0 7.08116 0H9.29491V0.000913619Z" fill="white"/>
<path d="M5.17489 17.7188L5.02956 17.8156L4.3432 18.2743L4.17443 18.3876L4.07222 18.214L0.181005 11.6487C-0.0599688 11.2422 -0.0599688 10.7378 0.181005 10.3322L0.962059 9.012L1.06426 8.83936L1.23304 8.95173L1.92127 9.40667L2.0666 9.5026L1.9794 9.65156L1.22741 10.9215C1.20304 10.9644 1.20304 11.0174 1.22648 11.0594L5.08488 17.5717L5.17489 17.7188Z" fill="white"/>
<path d="M8.9697 20.8003V21.9788H7.08127C6.60024 21.9788 6.15209 21.7257 5.91204 21.3192L5.09253 19.9369L5.00439 19.7889L5.14972 19.6921L5.83607 19.2334L6.00485 19.1201L6.10708 19.2937L6.95935 20.7317C6.98282 20.7719 7.02783 20.7984 7.07563 20.8003H8.9697Z" fill="white"/>
<path d="M15.846 20.8008H9.9248V21.9793H15.846V20.8008Z" fill="white"/>
<path d="M23.8639 14.3185L23.7757 14.4674L19.7148 21.3205C19.4757 21.727 19.0265 21.9801 18.5437 21.9801H17.5601V20.8015H18.5437C18.5924 20.8015 18.6393 20.776 18.6646 20.7358L18.6665 20.733L22.7593 13.8279L22.8606 13.6543L23.0294 13.7667L23.7176 14.2235L23.8639 14.3185Z" fill="white"/>
<path d="M25.4448 11.6487L24.795 12.746L24.6928 12.9186L24.524 12.8062L23.8358 12.3504L23.6904 12.2535L23.7786 12.1046L24.3984 11.0594C24.4228 11.0173 24.4228 10.9653 24.3975 10.9223L22.0139 6.89876L21.9268 6.75072L22.0711 6.65392L22.7575 6.19528L22.9272 6.08105L23.0294 6.25468L25.3745 10.2116L25.4458 10.3321C25.6867 10.7369 25.6867 11.2421 25.4448 11.6487Z" fill="white"/>
<path d="M22.0966 4.67963L21.9513 4.77647L21.2649 5.23602L21.0961 5.34932L20.9939 5.17573L18.6676 1.24716C18.6432 1.20513 18.5954 1.17863 18.5448 1.17863H17.3765V0.000976562H18.5448C18.9893 0.000976562 19.4046 0.214764 19.6559 0.567422H19.6615L19.7159 0.6597L22.0103 4.53162L22.0966 4.67963Z" fill="white"/>
<path d="M15.6709 0.000976562H10.4116V1.17955H15.6709V0.000976562Z" fill="white"/>
<path d="M45.8677 2.56641H33.0876L29.4158 19.4574H33.6033L34.8344 13.7044H43.5817C47.8761 13.7044 49.923 13.106 50.6956 9.5547L51.2723 6.86862C51.3951 6.34241 51.457 5.84631 51.457 5.39406C51.4579 3.01773 49.4936 2.56641 45.8677 2.56641ZM43.4814 10.7671H35.4908L36.6179 5.5777H44.7632C46.9432 5.5777 47.112 6.01895 47.112 6.64207C47.112 6.89241 47.0829 7.12903 47.0219 7.36385L46.6938 8.78997C46.3149 10.3971 45.7139 10.7671 43.4814 10.7671Z" fill="white"/>
<path d="M72.8212 2.56641L69.1494 19.4574H64.9629L67.5608 7.51733L53.9971 19.4574H49.9399L53.6118 2.56641H57.7983L55.1992 14.5284L68.7643 2.56641H72.8212Z" fill="white"/>
<path d="M91.7033 3.08808C90.8832 2.72264 89.6698 2.56641 87.6451 2.56641H74.789L71.1177 19.4574H84.1272C88.4002 19.4574 90.4377 18.8581 91.2165 15.3087L91.5685 13.7181C91.6417 13.3855 91.6771 13.0657 91.6771 12.7378C91.6771 11.9447 91.3937 11.3308 90.8622 10.9461C91.5581 10.5651 92.3148 9.83699 92.6 8.45013L92.927 6.8531C93.0397 6.25198 93.1088 5.79421 93.1088 5.37031C93.1088 4.2566 92.6494 3.51109 91.7033 3.08808ZM86.8152 9.56749H77.4427L78.3174 5.5777H86.6648C88.7045 5.5777 88.8631 5.98792 88.8631 6.56895C88.8631 6.76359 88.8219 6.99749 88.7801 7.24412L88.6174 8.09378C88.4159 9.13988 87.8926 9.56749 86.8152 9.56749ZM87.4378 13.8414L87.2636 14.5933C86.9197 16.0816 86.3035 16.4452 84.1272 16.4452H75.9366L76.834 12.407H86.3633C87.3246 12.407 87.5058 12.6948 87.5058 13.2266C87.5058 13.3956 87.4848 13.5911 87.4378 13.8414Z" fill="white"/>
<path d="M111.961 16.4461H114.306L113.645 19.4574H92.1187L95.7899 2.56641H99.9776L96.9382 16.4461H107.774L110.814 2.56641H115L111.961 16.4461Z" fill="white"/>
</g>
<defs>
<clipPath id="clip0_0_457">
<rect width="115" height="22" fill="white"/>
</clipPath>
</defs>
</svg>
