<svg width="103" height="35" viewBox="0 0 103 35" fill="none" xmlns="http://www.w3.org/2000/svg">
<g clip-path="url(#clip0_0_476)">
<path fill-rule="evenodd" clip-rule="evenodd" d="M36.465 0.0136719H21.9726L7.79264 14.5091L9.34505 16.0962L19.371 5.84712L19.5243 5.97304C19.7385 6.1492 19.9394 6.34153 20.1371 6.53649C20.7404 7.13141 21.2893 7.78414 21.7837 8.47593C23.3776 10.7055 24.3536 13.2948 24.6083 16.0457C24.61 16.0647 24.6123 16.0838 24.614 16.1028L24.6333 16.3166L24.6489 16.5697C24.7045 17.4762 24.6791 18.3876 24.5734 19.2896L24.5524 19.4686L26.4518 21.4102L26.5775 20.7162C26.7695 19.6583 26.8648 18.5826 26.8648 17.5066C26.8648 15.3468 26.4787 13.205 25.7155 11.1906L25.6638 11.0545L36.4646 0.0139099L36.465 0.0136719ZM31.1756 2.24802L24.6605 8.90656L24.5168 8.65659C23.6052 7.06996 22.4495 5.63432 21.1027 4.41307L20.9284 4.25526L22.8922 2.24826H31.1756V2.24802ZM6.24018 15.3725L4.64528 17.0027L6.58573 18.9861L9.59579 22.0193L12.3165 19.3413L15.1442 22.0741L22.3686 14.4245L22.3002 14.2075C22.1315 13.6733 21.9329 13.1486 21.707 12.637L21.4907 12.1474C19.3673 14.3186 17.4155 16.4851 15.2918 18.6559L15.1411 18.8102L12.3018 16.0662L9.63871 18.8254L8.18059 17.3559L6.24018 15.3725ZM21.9712 35H36.465L20.4598 18.6392L18.9606 20.2813L23.0297 24.4408L22.9545 24.5867C20.423 29.502 15.5737 32.6133 10.1352 32.7552L9.77149 32.7647H4.42618L12.1051 24.9153L15.9084 28.8021L16.1506 28.6557C16.5921 28.3893 17.0214 28.1013 17.4327 27.7888L17.7705 27.5323L12.1051 21.7411L0.69085 33.4092V35.0003L10.1531 35C13.3066 34.925 16.3591 33.9709 19.0102 32.2234L19.159 32.1253L21.9712 35ZM24.66 26.1067L31.1733 32.7645H22.8896L20.9273 30.7589L21.1015 30.6009C22.4485 29.3794 23.6043 27.9432 24.5166 26.3564L24.6602 26.1067H24.66ZM15.3961 3.38233L17.0667 1.67479L16.578 1.45697C14.4198 0.495248 12.1011 0.0139099 9.74766 0.0139099H0.691083L0.690613 24.9429L4.98682 20.5511L3.43438 18.9642L2.88577 19.5253L2.87681 2.24921L10.1352 2.25897C11.8608 2.30467 13.5667 2.65247 15.1746 3.29425L15.3959 3.38257L15.3961 3.38233Z" fill="white"/>
<path fill-rule="evenodd" clip-rule="evenodd" d="M19.4104 6.94141L9.67806 16.7641L7.14844 14.2108L21.2147 0.0136719H37.6618L26.4692 11.3099L25.1255 12.6661L24.454 8.23715L24.796 7.89173L29.0349 3.61467H22.7063L21.9306 4.39713L19.4099 6.9412L19.4104 6.94141ZM15.5361 4.36477L15.751 4.18909L15.5654 4.37617L15.5361 4.36455V4.36477Z" fill="white"/>
<path fill-rule="evenodd" clip-rule="evenodd" d="M17.9829 32.3519L16.6896 31.0465C17.7583 30.4704 18.7504 29.7562 19.6429 28.9207L22.0968 31.3973H29.033L24.7955 27.1205L18.3225 20.5872L20.7651 17.9458L37.6617 34.9993H20.6061L17.9829 32.3519ZM12.7293 27.0496L9.7674 24.1297L12.2972 21.5766L18.2178 27.4828C17.188 28.2553 16.2972 28.8747 15.1912 29.5341L12.7291 27.0493L12.7293 27.0496Z" fill="white"/>
<path fill-rule="evenodd" clip-rule="evenodd" d="M3.85986 3.13998H3.85963L3.85986 3.63037V21.7025L0 25.6675V0.0131836H3.85986V3.13998ZM3.85986 34.9993H0V34.094L3.85986 30.1802V34.9995V34.9993Z" fill="white"/>
<path fill-rule="evenodd" clip-rule="evenodd" d="M44.3706 0.0136719H45.4041V34.9995H44.3706V0.0136719Z" fill="white"/>
<path d="M54.0939 2.993H54.6994L56.6103 -0.00025023H59.8499L56.9012 4.07233L60.1408 8.35176H56.8853L54.6994 5.29734H54.0939V8.35176H51.397V-0.00025023H54.0939V2.993ZM70.8497 8.35176H67.9955L67.4999 6.96606H64.4331L63.9457 8.35176H61.1225L64.4094 -0.00025023H67.5628L70.8493 8.35176H70.8497ZM65.196 4.80717H66.7371L65.9665 2.62545L65.196 4.80717ZM79.9068 2.06675L75.9834 6.04768H79.9068V8.35176H72.4215V6.29238L76.3372 2.30385H72.4133V-0.000488281H79.9068V2.06651V2.06675ZM91.1976 8.35176H88.3434L87.8478 6.96606H84.781L84.2936 8.35176H81.4708L84.7573 -0.00025023H87.9107L91.1976 8.35176ZM85.5443 4.80717H87.0854L86.3148 2.62545L85.5443 4.80717ZM101.623 8.35176H98.9894L95.7417 4.20254V8.35176H93.0443V-0.00025023H95.6788L98.9265 4.14898V-0.00025023H101.623V8.35176Z" fill="white"/>
<path d="M55.1598 11.0894C56.4531 11.0894 57.4908 11.4681 58.273 12.228C59.0548 12.9883 59.4457 13.9974 59.4457 15.2531C59.4457 16.5039 59.0548 17.5082 58.2705 18.2683C57.4865 19.0283 56.4483 19.4097 55.1598 19.4097H51.3975V11.0896H55.1598V11.0894ZM53.9272 13.4763V17.0225H55.0856C55.6515 17.0225 56.0816 16.8599 56.3768 16.5343C56.672 16.2089 56.8194 15.7821 56.8194 15.2531C56.8194 14.7144 56.672 14.2821 56.3768 13.9593C56.0816 13.6365 55.6515 13.4763 55.0856 13.4763H53.9272ZM63.5704 19.4095H61.0402V11.0894H63.5704V19.4095ZM69.6211 10.9368C70.8602 10.9368 71.8492 11.2977 72.587 12.0197L70.8162 13.8194C70.4473 13.5146 69.9896 13.3618 69.444 13.3618C68.9424 13.3618 68.5342 13.5372 68.2192 13.8881C67.9046 14.2388 67.7473 14.6939 67.7473 15.2531C67.7473 15.9089 67.9193 16.4022 68.2636 16.7328C68.6079 17.0635 69.0234 17.2285 69.5104 17.2285C69.9681 17.2285 70.3271 17.1599 70.5852 17.0225C70.8433 16.8854 71.0304 16.6591 71.1485 16.3438H69.2966V14.5366H73.5537C73.5929 14.7856 73.6127 15.0908 73.6127 15.4517C73.6127 16.0263 73.5317 16.5472 73.3666 17.0175C73.202 17.4877 72.9857 17.8765 72.7202 18.1842C72.4543 18.4918 72.147 18.7513 71.7979 18.9619C71.4484 19.1731 71.0946 19.3255 70.7356 19.4171C70.3766 19.5085 70.015 19.5542 69.6513 19.5542C68.9773 19.5542 68.3576 19.4426 67.7921 19.2212C67.2263 19 66.7544 18.6975 66.373 18.3111C65.992 17.925 65.6942 17.4672 65.483 16.9409C65.2714 16.4146 65.1658 15.8528 65.1658 15.2529C65.1658 13.9822 65.5813 12.9447 66.4126 12.1416C67.2435 11.3384 68.3132 10.9365 69.6216 10.9365L69.6211 10.9368ZM77.737 19.4095H75.2068V11.0894H77.737V19.4095ZM86.1339 13.4839H83.8834V19.4095H81.3532V13.4839H79.1105V11.0891H86.1339V13.4839ZM94.9725 19.4095H92.2945L91.8299 18.0293H88.9524L88.4951 19.4095H85.8464L88.9304 11.0894H91.889L94.9725 19.4095ZM89.6682 15.8785H91.1141L90.3909 13.7051L89.6682 15.8785ZM101.624 19.4095H96.2499V11.0894H98.78V17.0149H101.624V19.4097V19.4095Z" fill="white"/>
<path d="M59.1763 27.9632H57.0771L56.154 24.8238L55.2253 27.9632H53.1261L51.3975 22.1084H53.2334L54.2048 25.8434L55.2197 22.1084H57.109L58.1235 25.8434L59.0953 22.1084H60.9097L59.1759 27.9632H59.1763ZM66.7807 27.9632H61.981V22.1084H66.7914V23.6379H63.8277V24.2552H66.5553V25.7846H63.8277V26.434H66.7807V27.9635V27.9632ZM73.0055 27.9632H68.2059V22.1084H73.0163V23.6379H70.053V24.2552H72.7801V25.7846H70.053V26.434H73.0055V27.9635V27.9632ZM76.2722 24.2068H76.6855L77.99 22.1087H80.2017L78.1887 24.9636L80.4004 27.9635H78.1779L76.6855 25.8222H76.2722V27.9635H74.4307V22.1087H76.2722V24.2068Z" fill="white"/>
<path d="M88.7287 25.0684C88.7287 25.4419 88.8442 25.7593 89.0829 26.0106C89.3217 26.2623 89.6251 26.3839 89.9845 26.3839C90.3435 26.3839 90.6456 26.2609 90.8856 26.0106C91.1283 25.7576 91.2481 25.4417 91.2481 25.0684C91.2481 24.7054 91.127 24.3967 90.8856 24.1424C90.6439 23.8882 90.3435 23.7606 89.9845 23.7606C89.6302 23.7606 89.332 23.8879 89.0911 24.1424C88.8498 24.3964 88.7287 24.7054 88.7287 25.0684ZM87.8517 22.9967C88.4253 22.4339 89.1364 22.1519 89.9845 22.1519C90.8322 22.1519 91.5433 22.4337 92.1173 22.9967C92.6914 23.5597 92.9784 24.2534 92.9784 25.0763C92.9784 25.9047 92.6914 26.601 92.1173 27.1642C91.5485 27.7215 90.8374 28.0007 89.9845 28.0007C89.1312 28.0007 88.4201 27.7215 87.8517 27.1642C87.2772 26.601 86.9906 25.9047 86.9906 25.0763C86.9906 24.2531 87.2776 23.5597 87.8517 22.9967ZM84.4755 24.0122C84.4755 23.9258 84.4311 23.851 84.3428 23.7887C84.2549 23.7266 84.1484 23.6956 84.0251 23.6956C83.6976 23.6956 83.4455 23.901 83.2684 24.3129L81.7876 23.598C81.997 23.1486 82.3004 22.7948 82.6974 22.5382C83.0938 22.2809 83.5369 22.1521 84.0251 22.1521C84.61 22.1521 85.1077 22.3328 85.5223 22.6884C85.9339 23.0417 86.1416 23.4623 86.1416 23.9553C86.1416 24.5835 85.7162 25.2584 84.8785 25.9942L84.4436 26.3758H86.1662V27.9196H81.997V26.7255L83.9368 24.9304C84.2954 24.5985 84.4759 24.2938 84.4759 24.0122H84.4755Z" fill="white"/>
<path d="M96.2593 24.012C96.2593 23.9255 96.2154 23.8508 96.127 23.7884C96.0391 23.7263 95.9322 23.6954 95.8094 23.6954C95.4819 23.6954 95.2298 23.9008 95.0526 24.3126L93.5718 23.5977C93.7809 23.1483 94.0843 22.7946 94.4812 22.5379C94.8781 22.2806 95.3211 22.1519 95.8094 22.1519C96.3938 22.1519 96.892 22.3325 97.3061 22.6882C97.7177 23.0414 97.9258 23.4621 97.9258 23.9551C97.9258 24.5833 97.5005 25.2582 96.6623 25.994L96.2279 26.3756H97.95V27.9193H93.7809V26.7253L95.7206 24.9301C96.0792 24.5983 96.2597 24.2936 96.2597 24.012H96.2593Z" fill="white"/>
<path d="M99.3192 32.1826C99.3192 32.2755 99.3459 32.3521 99.4002 32.4128C99.4541 32.4735 99.5252 32.5037 99.6131 32.5037H100.382V31.8494H99.6131C99.5252 31.8494 99.4541 31.8805 99.4002 31.9434C99.3459 32.006 99.3192 32.0857 99.3192 32.1826ZM100.01 33.6545L99.2834 34.939H97.9026L98.7494 33.4305C98.521 33.2972 98.3431 33.1215 98.2151 32.9037C98.0871 32.6854 98.0229 32.4452 98.0229 32.1826C98.0229 31.7584 98.175 31.4052 98.4792 31.1226C98.7831 30.8398 99.1614 30.6984 99.6135 30.6984H101.624V34.939H100.382V33.6545H100.01ZM96.2882 31.8494H95.5737V32.6066H96.2882C96.3882 32.6066 96.4722 32.5702 96.5403 32.4976C96.608 32.425 96.6425 32.334 96.6425 32.225C96.6425 32.12 96.6084 32.0312 96.5403 31.9586C96.4722 31.886 96.3882 31.8496 96.2882 31.8496V31.8494ZM95.5737 33.7576V34.939H94.3312V30.6984H96.2882C96.7562 30.6984 97.1463 30.8438 97.4583 31.1345C97.7746 31.4254 97.9323 31.7889 97.9323 32.2248C97.9323 32.6609 97.7746 33.0265 97.4583 33.3215C97.1463 33.6124 96.7562 33.7576 96.2882 33.7576H95.5737ZM91.72 33.2972V33.7878H92.4522C92.5401 33.7878 92.6156 33.7637 92.6772 33.7152C92.7392 33.6667 92.7703 33.6081 92.7703 33.5393C92.7703 33.4707 92.7392 33.4131 92.6772 33.3667C92.6156 33.32 92.5401 33.2969 92.4522 33.2969H91.72V33.2972ZM90.4776 30.6981H93.6891V31.8491H91.7205V32.146H92.4527C92.9125 32.146 93.2948 32.2791 93.599 32.5457C93.9072 32.812 94.061 33.1432 94.061 33.5391C94.061 33.9309 93.9072 34.2642 93.599 34.5386C93.2952 34.805 92.9125 34.9383 92.4527 34.9383H90.4776V30.6977V30.6981ZM87.8728 32.1824C87.8728 32.2753 87.9 32.3519 87.9538 32.4126C88.0081 32.4733 88.0788 32.5035 88.1667 32.5035H88.9351V31.8491H88.1667C88.0788 31.8491 88.0081 31.8803 87.9538 31.9431C87.9 32.0058 87.8728 32.0855 87.8728 32.1824ZM88.5628 33.6543L87.8366 34.9388H86.4562L87.3027 33.4303C87.0742 33.297 86.8963 33.1213 86.7683 32.9034C86.6403 32.6851 86.5761 32.445 86.5761 32.1824C86.5761 31.7582 86.7282 31.4049 87.0324 31.1224C87.3363 30.8396 87.7147 30.6981 88.1667 30.6981H90.1776V34.9388H88.9351V33.6543H88.5628ZM84.0549 31.8491H82.9629V30.6981H86.3959V31.8491H85.2978V34.9388H84.0549V31.8491ZM80.1358 34.9388H78.8933V30.6981H80.1358V32.2248H81.4799V30.6981H82.7224V34.9388H81.4799V33.3758H80.1358V34.9388ZM75.4055 30.6981H78.6226V31.8491H76.648V32.231H78.2507V33.3819H76.648V33.7878H78.6528V34.9388H75.4055V30.6981ZM73.1244 30.6374C73.5968 30.6374 74.0148 30.7546 74.379 30.9888C74.7474 31.215 75.0194 31.5218 75.1956 31.9096L73.9833 32.3581C73.9071 32.2007 73.7929 32.0745 73.6407 31.9794C73.4886 31.8846 73.3171 31.837 73.1249 31.837C72.8607 31.837 72.6387 31.9317 72.4586 32.1219C72.2785 32.3117 72.1884 32.5419 72.1884 32.8125C72.1884 33.0915 72.2763 33.3255 72.4526 33.5152C72.6327 33.7012 72.8568 33.794 73.1249 33.794C73.3171 33.794 73.489 33.7473 73.6407 33.6545C73.7929 33.5617 73.9071 33.4364 73.9833 33.2791L75.1956 33.7274C75.0237 34.107 74.7513 34.416 74.379 34.6543C74.0148 34.8845 73.5968 34.9995 73.1244 34.9995C72.4883 34.9995 71.9582 34.7915 71.5342 34.3756C71.1058 33.9554 70.8916 33.4364 70.8916 32.8187C70.8916 32.2048 71.1058 31.6877 71.5342 31.2678C71.9621 30.8476 72.4926 30.6377 73.1244 30.6377V30.6374ZM67.4245 32.4609L66.9082 33.0848H67.4245V32.4609ZM67.4245 34.9388V34.2301H65.4856V33.0789L67.4724 30.6981H68.6187V33.0848H69.0329V34.2301H68.6187V34.9388H67.4241H67.4245ZM63.9488 32.0248C63.9488 31.96 63.9161 31.9046 63.8497 31.8582C63.7838 31.8115 63.7049 31.7884 63.6131 31.7884C63.3687 31.7884 63.1808 31.9417 63.0485 32.2488L61.9444 31.7156C62.1004 31.3806 62.3262 31.1169 62.6227 30.925C62.9188 30.7331 63.2485 30.6372 63.6131 30.6372C64.0492 30.6372 64.4211 30.7705 64.7293 31.0371C65.0374 31.2997 65.1917 31.6147 65.1917 31.9824C65.1917 32.4507 64.8775 32.9577 64.2496 33.5028L63.9251 33.7876H65.2098V34.9385H62.1004V34.048L63.5471 32.7092C63.8152 32.4628 63.9492 32.2345 63.9492 32.0245L63.9488 32.0248ZM58.3127 33.8847V32.8368H61.3617V33.8847H58.3127ZM53.4019 32.0248C53.4019 31.96 53.3691 31.9046 53.3027 31.8582C53.2368 31.8115 53.1579 31.7884 53.0661 31.7884C52.8218 31.7884 52.6339 31.9417 52.5016 32.2488L51.3975 31.7156C51.5535 31.3806 51.7793 31.1169 52.0758 30.925C52.3719 30.7331 52.7016 30.6372 53.0661 30.6372C53.5023 30.6372 53.8742 30.7705 54.1823 31.0371C54.4905 31.2997 54.6443 31.6147 54.6443 31.9824C54.6443 32.4507 54.3302 32.9577 53.7022 33.5028L53.3777 33.7876H54.6624V34.9385H51.553V34.048L52.9998 32.7092C53.2678 32.4628 53.4019 32.2345 53.4019 32.0245V32.0248Z" fill="white"/>
<path d="M56.1195 31.9884L55.514 32.2536L55.0735 31.229L56.4496 30.6177H57.3305V34.9391H56.1195V31.9884Z" fill="white"/>
<path d="M101.309 24.012C101.309 23.9255 101.265 23.8508 101.177 23.7884C101.089 23.7263 100.982 23.6954 100.859 23.6954C100.532 23.6954 100.28 23.9008 100.103 24.3126L98.6219 23.5977C98.8309 23.1483 99.1343 22.7946 99.5312 22.5379C99.9281 22.2806 100.371 22.1519 100.859 22.1519C101.444 22.1519 101.942 22.3325 102.356 22.6882C102.768 23.0414 102.976 23.4621 102.976 23.9551C102.976 24.5833 102.551 25.2582 101.712 25.994L101.278 26.3756H103V27.9193H98.8309V26.7253L100.771 24.9301C101.129 24.5983 101.31 24.2936 101.31 24.012H101.309Z" fill="white"/>
</g>
<defs>
<clipPath id="clip0_0_476">
<rect width="103" height="35" fill="white"/>
</clipPath>
</defs>
</svg>
