<?xml version="1.0" encoding="utf-8"?><svg xmlns="http://www.w3.org/2000/svg" xmlns:xlink="http://www.w3.org/1999/xlink"><symbol fill="none" viewBox="0 0 645 95" id="digital" xmlns="http://www.w3.org/2000/svg"><g filter="url(#afilter0_d_225_20540)"><path d="M4.39 89h-2v2h2v-2zm0-83.636v-2h-2v2h2zm54.152 5.023l-.943 1.763.009.005.934-1.768zM73.08 24.762l-1.757.955.005.009 1.752-.964zm.041 44.88l1.756.959.001-.003-1.757-.955zM58.664 84.019l.94 1.765.007-.003-.947-1.762zM27.097 69.724h-2v2h2v-2zm19.234-2l-.826-1.822-.006.003.832 1.818zm6.698-6.902l-1.807-.858-.006.012 1.813.846zm-.041-27.28l-1.807.858.006.012 1.8-.87zm-6.86-6.902l-.815 1.827.006.003.808-1.83zm-19.031-2v-2h-2v2h2zM36.57 87H4.391v4h32.18v-4zm-30.18 2V5.364h-4V89h4zm-2-81.636h31.853v-4H4.391v4zm31.853 0c8.343 0 15.438 1.622 21.355 4.786l1.886-3.527c-6.607-3.533-14.377-5.26-23.24-5.26v4zm21.364 4.791c5.94 3.137 10.5 7.646 13.715 13.562l3.515-1.91c-3.591-6.608-8.724-11.683-15.362-15.189l-1.868 3.537zm13.72 13.57c3.235 5.88 4.898 13.007 4.898 21.457h4c0-8.974-1.768-16.795-5.394-23.384l-3.504 1.928zm4.898 21.457c0 8.452-1.65 15.595-4.862 21.506l3.514 1.91c3.595-6.614 5.348-14.444 5.348-23.416h-4zm-4.86 21.502c-3.218 5.896-7.757 10.407-13.648 13.572l1.893 3.524c6.578-3.533 11.677-8.605 15.266-15.179l-3.511-1.916zM57.724 82.254C51.832 85.392 44.804 87 36.571 87v4c8.756 0 16.457-1.713 23.034-5.217l-1.881-3.53zM27.097 71.724h8.657v-4h-8.657v4zm8.657 0c4.345 0 8.171-.699 11.41-2.182l-1.665-3.637c-2.588 1.185-5.813 1.82-9.745 1.82v4zm11.404-2.18c3.426-1.554 5.982-4.231 7.683-7.877l-3.625-1.691c-1.348 2.889-3.257 4.812-5.711 5.926l1.653 3.643zm7.677-7.864c1.734-3.65 2.521-8.536 2.521-14.498h-4c0 5.69-.764 9.898-2.134 12.782l3.613 1.716zm2.521-14.498c0-5.966-.801-10.856-2.567-14.51l-3.602 1.74c1.392 2.88 2.17 7.083 2.17 12.77h4zm-2.562-14.498c-1.736-3.656-4.356-6.327-7.86-7.873L45.32 28.47c2.541 1.121 4.495 3.052 5.862 5.93l3.614-1.716zm-7.853-7.87c-3.32-1.48-7.291-2.175-11.84-2.175v4c4.163 0 7.543.64 10.212 1.828l1.628-3.654zM35.1 22.638h-8.004v4H35.1v-4zm-10.004 2v45.085h4V24.64h-4zm116.24-19.275h2v-2h-2v2zm0 83.636v2h2v-2h-2zm-22.706 0h-2v2h2v-2zm0-83.636v-2h-2v2h2zm20.706 0V89h4V5.364h-4zm2 81.636h-22.706v4h22.706v-4zm-20.706 2V5.364h-4V89h4zm-2-81.636h22.706v-4h-22.706v4zM236.313 32.97l-1.943.477.374 1.523h1.569v-2zm-1.674-3.798l-1.652 1.128.006.01.007.01 1.639-1.148zm-2.859-2.818l-1.155 1.633.022.016.023.015 1.11-1.664zm-3.921-1.756l-.535 1.927.021.006.021.006.493-1.939zm-14.62 2.124l-1.121-1.656-.007.005 1.128 1.65zm-6.125 7.882l-1.849-.763-.005.012 1.854.75zm-.082 24.993l-1.868.715 1.868-.715zm5.962 8.004l-1.148 1.638 1.148-1.638zm18.459 1.266l-.798-1.834-.008.004.806 1.83zm5.187-4.288l-1.702-1.051 1.702 1.05zm1.715-6.534l.207-1.99-2.207-.23v2.22h2zm3.92.408v2l.207-3.99-.207 1.99zm-19.112 0h-2v2h2v-2zm0-16.172v-2h-2v2h2zm37.081 0h2v-2h-2v2zm-4.86 31.16l-1.716-1.027-.002.003 1.718 1.024zm-13.313 12.415l.905 1.783.003-.002-.908-1.781zm-40.838-.899l-.98 1.744.98-1.744zm-14.416-14.783l-1.762.945.003.005 1.759-.95zm-2.001-41.206l-1.858-.74-.003.009 1.861.731zm8.821-13.517l1.399 1.43.005-.006-1.404-1.424zm13.027-8.372l.713 1.869.009-.004-.722-1.865zm29.649-.735l-.633 1.897.008.003.007.002.618-1.902zm11.312 5.962l-1.241 1.568.007.006.007.005 1.227-1.579zm7.963 9.107l1.735-.995-1.735.995zm3.676 11.557v2h2.218l-.229-2.206-1.989.206zm-21.009-.476c-.406-1.655-1.058-3.154-1.978-4.469L233 30.32c.605.864 1.069 1.897 1.37 3.128l3.885-.953zm-1.965-4.45a12.417 12.417 0 00-3.401-3.354l-2.219 3.328a8.426 8.426 0 012.317 2.282l3.303-2.256zm-3.355-3.322c-1.341-.949-2.878-1.628-4.582-2.062l-.987 3.877c1.291.328 2.367.82 3.259 1.45l2.31-3.265zm-4.54-2.05c-1.67-.465-3.473-.686-5.395-.686v4c1.617 0 3.053.186 4.324.54l1.071-3.855zM223 21.985c-4.141 0-7.802.995-10.882 3.08l2.242 3.312c2.311-1.564 5.158-2.392 8.64-2.392v-4zm-10.889 3.085c-3.035 2.075-5.304 5.034-6.846 8.77l3.697 1.526c1.29-3.126 3.105-5.42 5.406-6.994l-2.257-3.302zm-6.851 8.782c-1.51 3.73-2.229 8.138-2.229 13.166h4c0-4.665.669-8.534 1.937-11.665l-3.708-1.5zm-2.229 13.166c0 5.072.689 9.52 2.133 13.293l3.736-1.43c-1.224-3.198-1.869-7.135-1.869-11.863h-4zm2.133 13.293c1.454 3.797 3.666 6.812 6.682 8.927l2.296-3.276c-2.265-1.588-4.028-3.909-5.242-7.081l-3.736 1.43zm6.682 8.927c3.044 2.133 6.749 3.139 10.99 3.139v-4c-3.599 0-6.456-.846-8.694-2.415l-2.296 3.276zm10.99 3.139c3.636 0 6.805-.527 9.423-1.68l-1.612-3.661c-1.955.86-4.531 1.34-7.811 1.34v4zm9.415-1.677c2.627-1.144 4.7-2.82 6.09-5.071l-3.403-2.102c-.896 1.451-2.281 2.634-4.283 3.505l1.596 3.668zm6.09-5.071c1.367-2.213 2.014-4.766 2.014-7.585h-4c0 2.19-.497 3.993-1.417 5.483l3.403 2.102zm-.193-5.596l3.92.408.414-3.978-3.92-.408-.414 3.978zm4.127-3.58h-19.112v4h19.112v-4zm-17.112 2V42.28h-4v16.172h4zm-2-14.173h37.081v-4h-37.081v4zm35.081-2V53.88h4V42.281h-4zm0 11.598c0 7.337-1.557 13.486-4.576 18.535l3.433 2.053c3.46-5.787 5.143-12.678 5.143-20.588h-4zm-4.578 18.538c-3.017 5.062-7.172 8.94-12.503 11.656l1.816 3.564c5.995-3.054 10.715-7.453 14.123-13.172l-3.436-2.048zm-12.5 11.655c-5.315 2.696-11.462 4.072-18.493 4.072v4c7.562 0 14.346-1.484 20.303-4.505l-1.81-3.567zm-18.493 4.072c-7.85 0-14.65-1.665-20.46-4.93l-1.96 3.487c6.496 3.65 13.99 5.443 22.42 5.443v-4zm-20.46-4.93c-5.813-3.267-10.353-7.915-13.636-13.991l-3.519 1.901c3.631 6.72 8.702 11.928 15.195 15.577l1.96-3.487zM188.58 69.228c-3.245-6.051-4.908-13.322-4.908-21.884h-4c0 9.08 1.766 17.029 5.383 23.774l3.525-1.89zm-4.908-21.884c0-6.715 1.017-12.585 3.006-17.646l-3.723-1.462c-2.205 5.612-3.283 11.993-3.283 19.108h4zm3.002-17.637c2.03-5.101 4.822-9.365 8.362-12.828l-2.797-2.859c-3.975 3.888-7.064 8.636-9.281 14.207l3.716 1.48zm8.367-12.833a35.286 35.286 0 0112.336-7.927l-1.425-3.738a39.29 39.29 0 00-13.719 8.816l2.808 2.85zm12.345-7.93c4.683-1.812 9.718-2.725 15.124-2.725v-4c-5.866 0-11.394.993-16.567 2.993l1.443 3.731zM222.51 6.22c4.762 0 9.148.68 13.17 2.021l1.265-3.795c-4.471-1.49-9.288-2.226-14.435-2.226v4zm13.185 2.026c4.066 1.32 7.622 3.2 10.689 5.628l2.482-3.136c-3.467-2.745-7.453-4.84-11.935-6.296l-1.236 3.804zm10.703 5.64c3.095 2.404 5.575 5.243 7.456 8.522l3.469-1.99c-2.148-3.745-4.977-6.977-8.471-9.691l-2.454 3.159zm7.456 8.522c1.87 3.26 3.013 6.842 3.421 10.769l3.978-.413c-.463-4.46-1.77-8.582-3.93-12.346l-3.469 1.99zm5.41 8.562h-22.951v4h22.951v-4zm64.173-25.606h2v-2h-2v2zm0 83.636v2h2v-2h-2zm-22.706 0h-2v2h2v-2zm0-83.636v-2h-2v2h2zm20.706 0V89h4V5.364h-4zm2 81.636h-22.706v4h22.706v-4zm-20.706 2V5.364h-4V89h4zm-2-81.636h22.706v-4h-22.706v4zm61.08 16.295h-2v2h2v-2zm0-18.295v-2h-2v2h2zm72.692 0h2v-2h-2v2zm0 18.295v2h2v-2h-2zm-25.156 0v-2h-2v2h2zm0 65.341v2h2v-2h-2zm-22.38 0h-2v2h2v-2zm0-65.34h2v-2h-2v2zm-23.156 0V5.363h-4v18.295h4zm-2-16.296h72.692v-4h-72.692v4zm70.692-2v18.295h4V5.364h-4zm2 16.295h-25.156v4h25.156v-4zm-27.156 2V89h4V23.66h-4zm2 63.341h-22.38v4h22.38v-4zm-20.38 2V23.66h-4V89h4zm-2-67.34h-25.156v4h25.156v-4zM484.117 89v2h1.486l.429-1.422-1.915-.578zm-24.502 0l-1.9-.627-.867 2.627h2.767v-2zm27.606-83.636v-2h-1.446l-.453 1.373 1.899.627zm31.037 0l1.899-.627-.453-1.373h-1.446v2zM545.865 89v2h2.766l-.867-2.627-1.899.627zm-24.503 0l-1.915.578.429 1.422h1.486v-2zm-18.296-60.604l1.915-.578-.429-1.422h-1.486v2zm-.653 0v-2h-1.485l-.43 1.422 1.915.578zm-22.869 27.607v-2h-2v2h2zm46.065 0h2v-2h-2v2zm0 16.989v2h2v-2h-2zm-46.065 0h-2v2h2v-2zM484.117 87h-24.502v4h24.502v-4zm-22.603 2.627L489.12 5.99l-3.798-1.254-27.607 83.636 3.799 1.254zm25.707-82.263h31.037v-4h-31.037v4zm29.138-1.373l27.606 83.636 3.799-1.254-27.607-83.636-3.798 1.254zM545.865 87h-24.503v4h24.503v-4zm-22.589 1.422l-18.295-60.604-3.829 1.156 18.295 60.604 3.829-1.156zm-20.21-62.026h-.653v4h.653v-4zm-2.568 1.422l-18.295 60.604 3.829 1.156 18.296-60.604-3.83-1.156zm-20.954 30.185h46.065v-4h-46.065v4zm44.065-2v16.989h4v-16.99h-4zm2 14.989h-46.065v4h46.065v-4zm-44.065 2v-16.99h-4v16.99h4zM583.82 89h-2v2h2v-2zm0-83.636v-2h-2v2h2zm22.706 0h2v-2h-2v2zm0 65.34h-2v2h2v-2zm33.814 0h2v-2h-2v2zm0 18.296v2h2v-2h-2zm-54.52 0V5.364h-4V89h4zm-2-81.636h22.706v-4H583.82v4zm20.706-2v65.34h4V5.364h-4zm2 67.34h33.814v-4h-33.814v4zm31.814-2V89h4V70.704h-4zm2 16.296h-56.52v4h56.52v-4z" fill="#07D827"/></g><defs><filter id="afilter0_d_225_20540" x=".391" y=".22" width="643.949" height="93.923" filterUnits="userSpaceOnUse" color-interpolation-filters="sRGB"><feFlood flood-opacity="0" result="BackgroundImageFix"/><feColorMatrix in="SourceAlpha" values="0 0 0 0 0 0 0 0 0 0 0 0 0 0 0 0 0 0 127 0" result="hardAlpha"/><feOffset/><feGaussianBlur stdDeviation="2"/><feComposite in2="hardAlpha" operator="out"/><feColorMatrix values="0 0 0 0 0.572549 0 0 0 0 0.890196 0 0 0 0 0.662745 0 0 0 1 0"/><feBlend in2="BackgroundImageFix" result="effect1_dropShadow_225_20540"/><feBlend in="SourceGraphic" in2="effect1_dropShadow_225_20540" result="shape"/></filter></defs></symbol><symbol fill="none" viewBox="0 0 100 100" id="success" xmlns="http://www.w3.org/2000/svg"><path fill-rule="evenodd" clip-rule="evenodd" d="M91.666 60.25l-.43-2.653c-1.446-4.212-2.165-5.913-2.162-7.612.003-1.696.726-3.392 2.162-7.582l.43-2.653c0-2.68-1.333-5.264-3.666-6.903-3.767-2.605-5.385-3.564-6.424-4.956-1.021-1.369-1.484-3.155-2.882-7.335-1.166-3.514-4.583-5.89-8.403-5.89h-.027c-4.64.015-6.542.148-8.23-.388-1.667-.53-3.127-1.711-6.812-4.306A9.048 9.048 0 0050 8.333a8.962 8.962 0 00-5.222 1.653c-3.734 2.625-5.198 3.806-6.868 4.328-1.678.524-3.565.38-8.174.367h-.028c-3.82 0-7.236 2.374-8.403 5.888-1.407 4.194-1.872 5.98-2.895 7.347-1.038 1.387-2.649 2.344-6.396 4.945-2.348 1.639-3.681 4.222-3.681 6.903l.43 2.653c1.446 4.212 2.165 5.912 2.162 7.612-.003 1.696-.725 3.391-2.161 7.582l-.431 2.639c0 2.68 1.333 5.264 3.68 6.889 3.748 2.6 5.36 3.565 6.397 4.957 1.023 1.373 1.488 3.162 2.895 7.348 1.167 3.514 4.584 5.89 8.403 5.89h.028c4.64-.015 6.541-.148 8.23.388 1.667.53 3.127 1.711 6.812 4.306A9.048 9.048 0 0050 91.667a8.962 8.962 0 005.222-1.653c3.685-2.595 5.145-3.777 6.812-4.306 1.688-.536 3.59-.403 8.23-.389h.027c3.82 0 7.237-2.375 8.403-5.889 1.398-4.18 1.86-5.966 2.882-7.335 1.04-1.392 2.657-2.352 6.424-4.956 2.333-1.625 3.666-4.208 3.666-6.89z" fill="#12A028"/><path d="M64.374 34.375l6.459 6.617L44.79 68.229 29.166 52.671l6.458-6.617 9.167 8.941 19.583-20.62z" fill="#fff"/></symbol></svg>