<?xml version="1.0" standalone="no"?>
<!DOCTYPE svg PUBLIC "-//W3C//DTD SVG 20010904//EN"
 "http://www.w3.org/TR/2001/REC-SVG-20010904/DTD/svg10.dtd">
<svg version="1.0" xmlns="http://www.w3.org/2000/svg"
 width="652.000000pt" height="652.000000pt" viewBox="0 0 652.000000 652.000000"
 preserveAspectRatio="xMidYMid meet">
<metadata>
Created by potrace 1.14, written by Peter Selinger 2001-2017
</metadata>
<g transform="translate(0.000000,652.000000) scale(0.100000,-0.100000)"
fill="#000000" stroke="none">
<path d="M0 4063 l0 -2208 146 150 c80 83 261 269 402 414 142 145 269 276
283 290 l26 26 -41 41 c-23 23 -66 68 -97 100 l-56 60 0 1469 c0 809 3 1472 7
1475 21 13 1225 0 1296 -14 12 -2 45 -7 74 -11 59 -7 56 -7 160 -30 41 -9 86
-18 100 -21 25 -5 290 -94 323 -109 15 -6 45 20 158 136 76 78 139 146 139
149 0 14 -358 156 -440 175 -8 2 -72 17 -142 34 -70 17 -131 31 -135 30 -4 -1
-15 0 -23 4 -8 3 -37 8 -65 12 -27 3 -65 8 -82 11 -18 2 -60 6 -92 8 -33 2
-63 6 -68 9 -4 2 -428 5 -940 6 l-933 1 0 -2207z"/>
<path d="M3438 6063 c-114 -115 -314 -317 -445 -449 -264 -268 -1358 -1375
-1606 -1626 -138 -138 -157 -161 -145 -175 7 -9 104 -108 216 -221 l203 -206
449 455 c247 250 644 652 883 894 l434 439 64 -66 c75 -79 143 -157 184 -213
17 -22 33 -42 36 -45 39 -30 324 -530 302 -530 -3 0 -1 -6 5 -12 22 -28 132
-353 147 -438 3 -14 7 -36 10 -50 5 -25 12 -63 19 -113 3 -15 7 -35 10 -45 3
-9 7 -42 10 -72 3 -30 8 -84 12 -120 8 -85 8 -349 -1 -425 -4 -33 -8 -73 -10
-88 -3 -34 5 -43 192 -235 73 -75 133 -130 134 -122 0 8 2 22 4 30 3 13 9 47
30 170 2 14 7 48 10 75 3 28 9 77 12 110 4 33 7 155 7 270 0 187 -4 268 -19
385 -11 83 -15 116 -19 136 -2 12 -7 39 -10 60 -4 22 -11 57 -17 78 -6 22 -12
51 -14 65 -2 14 -4 27 -6 29 -2 2 -3 7 -13 47 -4 17 -10 37 -13 45 -3 8 -7 22
-9 30 -1 8 -9 36 -17 62 l-15 46 56 55 c53 50 853 859 1450 1465 139 141 310
314 379 384 l126 128 -1410 0 -1409 0 -206 -207z m1532 -421 c0 -4 -176 -184
-390 -401 -323 -326 -388 -397 -380 -411 5 -10 7 -20 3 -23 -3 -4 -31 33 -61
81 -108 171 -227 323 -381 484 -42 44 -60 71 -55 80 4 7 48 54 98 105 l91 91
538 0 c295 0 537 -3 537 -6z"/>
<path d="M3555 4043 c-193 -202 -416 -437 -485 -513 -44 -48 -298 -316 -391
-412 -41 -43 -78 -78 -82 -78 -3 0 -75 67 -159 149 -84 81 -193 187 -242 234
l-89 86 -17 -22 c-10 -12 -73 -78 -140 -147 -67 -69 -159 -164 -205 -212 -46
-49 -87 -88 -92 -88 -4 0 -137 131 -295 292 l-288 293 -135 -139 c-116 -118
-134 -140 -123 -154 61 -73 829 -843 838 -840 6 2 111 104 235 226 l225 224
33 -29 c17 -15 93 -87 167 -160 243 -236 283 -273 296 -273 8 0 14 4 14 9 0 5
19 29 43 53 23 25 103 109 177 188 74 78 160 169 190 200 30 32 105 111 165
176 131 140 143 152 311 330 72 77 146 155 164 174 18 19 63 68 101 108 l68
72 -28 83 c-34 98 -85 226 -109 273 l-17 33 -130 -136z"/>
<path d="M3548 3171 c-1 -5 -32 -40 -68 -78 -58 -62 -101 -109 -282 -306 -27
-28 -48 -54 -48 -57 0 -5 300 -312 645 -660 l104 -105 -39 -65 c-21 -36 -43
-70 -48 -76 -5 -5 -15 -21 -22 -35 -13 -24 -106 -154 -125 -175 -5 -6 -21 -26
-35 -43 -98 -122 -302 -325 -382 -379 -13 -9 -25 -19 -28 -22 -6 -7 -147 -110
-176 -127 -185 -113 -334 -191 -450 -234 -184 -67 -405 -127 -534 -144 -25 -3
-63 -8 -85 -11 -22 -3 -62 -8 -90 -11 -72 -7 -1115 -10 -1115 -4 0 6 100 110
549 569 157 161 363 371 458 468 l171 176 331 -332 331 -331 42 28 c66 43 82
53 98 60 8 4 17 10 20 13 3 4 44 32 91 63 48 31 94 63 102 72 9 8 18 15 22 15
4 0 12 6 20 13 7 6 36 28 64 47 27 19 50 38 51 42 0 3 -228 234 -506 512
l-506 507 -187 -190 c-169 -172 -489 -501 -792 -812 -64 -66 -259 -266 -435
-445 -175 -179 -403 -412 -507 -517 l-187 -192 0 -78 0 -78 962 4 c530 2 983
7 1008 10 25 4 63 9 85 12 22 4 58 8 80 11 22 3 46 7 54 10 8 3 30 7 50 10
194 29 679 203 764 273 9 8 17 11 17 6 0 -4 6 -3 13 2 6 6 34 22 60 37 l48 26
197 -200 197 -200 1462 2 1461 3 -496 502 c-273 276 -661 667 -861 870 -1180
1195 -1536 1553 -1542 1553 -4 0 -9 -4 -11 -9z m778 -1638 c80 -82 260 -264
401 -405 l256 -258 -596 0 -596 0 -76 77 -75 77 57 56 c103 101 195 205 272
305 17 22 34 45 39 50 43 56 112 157 112 165 0 5 5 10 10 10 6 0 10 5 10 10 0
12 30 60 37 60 2 0 69 -66 149 -147z"/>
</g>
</svg>
