<svg width="181" height="39" viewBox="0 0 181 39" fill="none" xmlns="http://www.w3.org/2000/svg">
<path d="M63.8895 22.4627L62.8107 25.5464H62.7208C62.541 24.8511 62.2114 23.7929 61.672 22.5232L55.8884 7.86038H50.2246V31.2302H53.9705V16.8092C53.9705 15.9022 53.9705 14.8743 53.9405 13.6046C53.9105 12.9697 53.8506 12.486 53.8206 12.1232H53.9105C54.0903 13.0301 54.3001 13.6953 54.4499 14.1185L61.4023 31.1697H64.0393L70.9317 13.9674C71.0816 13.5743 71.2314 12.7883 71.3812 12.1232H71.4711C71.3812 13.8464 71.3213 15.3883 71.2913 16.3255V31.1395H75.2769V7.79992H69.823L63.8895 22.4627ZM79.0528 14.3906H82.9484V31.1395H79.0528V14.3906ZM81.0306 7.3162C80.3713 7.3162 79.8319 7.55806 79.3824 7.98131C78.9329 8.40457 78.6932 8.94875 78.6932 9.61387C78.6932 10.2488 78.9329 10.7929 79.3824 11.2162C79.8319 11.6395 80.3713 11.8511 81.0306 11.8511C81.6898 11.8511 82.2592 11.6092 82.6787 11.2162C83.1283 10.7929 83.368 10.2488 83.368 9.61387C83.368 8.97899 83.1283 8.4348 82.6787 7.98131C82.2892 7.55806 81.7198 7.3162 81.0306 7.3162ZM96.7632 14.2395C96.044 14.0883 95.2948 13.9976 94.5756 13.9976C92.8076 13.9976 91.1893 14.3906 89.8408 15.1767C88.4923 15.9627 87.4135 17.0511 86.7243 18.4115C86.0051 19.8022 85.6455 21.4046 85.6455 23.2488C85.6455 24.8511 86.0051 26.272 86.6943 27.572C87.3835 28.8418 88.3425 29.8697 89.6311 30.565C90.8597 31.2604 92.2981 31.6232 93.9163 31.6232C95.7743 31.6232 97.3625 31.2302 98.6211 30.5046L98.6511 30.4743V26.8464L98.5013 26.9674C97.9319 27.3906 97.2726 27.7534 96.6134 27.965C95.9241 28.2069 95.2948 28.3278 94.7554 28.3278C93.1971 28.3278 91.9685 27.8743 91.0994 26.8767C90.2004 25.9092 89.7509 24.579 89.7509 22.9162C89.7509 21.1929 90.2004 19.8325 91.1294 18.8348C92.0584 17.8371 93.287 17.3232 94.7854 17.3232C96.044 17.3232 97.3326 17.7464 98.5013 18.5929L98.6511 18.7139V14.8743L98.6211 14.8441C98.1117 14.6325 97.5423 14.3906 96.7632 14.2395ZM109.619 14.1185C108.66 14.1185 107.761 14.4208 106.982 15.0557C106.323 15.5999 105.873 16.386 105.484 17.3232H105.454V14.3906H101.558V31.1395H105.454V22.5836C105.454 21.1325 105.753 19.9232 106.413 19.0464C107.072 18.1395 107.911 17.686 108.93 17.686C109.289 17.686 109.649 17.7767 110.098 17.8371C110.518 17.9581 110.818 18.079 111.027 18.2301L111.177 18.3511V14.4208L111.087 14.3906C110.818 14.2092 110.278 14.1185 109.619 14.1185ZM120.227 14.0278C117.5 14.0278 115.313 14.8441 113.784 16.4464C112.226 18.0488 111.477 20.2557 111.477 23.0371C111.477 25.6371 112.256 27.7534 113.754 29.2953C115.253 30.8069 117.291 31.5929 119.838 31.5929C122.505 31.5929 124.632 30.7767 126.161 29.1441C127.719 27.5115 128.468 25.3348 128.468 22.6441C128.468 19.9836 127.749 17.8674 126.281 16.3255C124.872 14.7836 122.804 14.0278 120.227 14.0278ZM123.344 26.9069C122.625 27.8441 121.486 28.2976 120.077 28.2976C118.669 28.2976 117.53 27.8441 116.721 26.8464C115.912 25.9092 115.522 24.5488 115.522 22.8255C115.522 21.0418 115.942 19.6813 116.721 18.7139C117.53 17.7464 118.639 17.2627 120.047 17.2627C121.426 17.2627 122.505 17.7162 123.284 18.6534C124.063 19.5906 124.483 20.9511 124.483 22.7348C124.423 24.5488 124.093 25.9697 123.344 26.9069ZM137.159 21.3441C135.93 20.8301 135.151 20.4371 134.791 20.1046C134.492 19.8022 134.342 19.379 134.342 18.8348C134.342 18.3813 134.521 17.9278 134.971 17.6255C135.42 17.3232 135.93 17.172 136.679 17.172C137.338 17.172 138.028 17.2929 138.687 17.4743C139.346 17.6557 139.945 17.9278 140.425 18.2906L140.575 18.4115V14.7232L140.485 14.6929C140.035 14.5115 139.436 14.3301 138.717 14.179C137.998 14.0581 137.338 13.9976 136.799 13.9976C134.941 13.9976 133.413 14.4511 132.214 15.4488C131.015 16.386 130.446 17.6557 130.446 19.1371C130.446 19.9232 130.566 20.6185 130.836 21.1929C131.105 21.7674 131.495 22.3115 132.034 22.765C132.574 23.1883 133.353 23.672 134.432 24.1255C135.331 24.5185 136.02 24.8208 136.439 25.0627C136.859 25.3046 137.129 25.5767 137.338 25.7883C137.488 26.0302 137.578 26.3325 137.578 26.7255C137.578 27.8441 136.739 28.3883 135.031 28.3883C134.372 28.3883 133.682 28.2674 132.873 27.9953C132.064 27.7232 131.315 27.3302 130.686 26.8767L130.536 26.7557V30.5953L130.626 30.6255C131.195 30.8976 131.884 31.079 132.723 31.2906C133.563 31.4418 134.312 31.5627 134.971 31.5627C136.979 31.5627 138.627 31.1092 139.796 30.1115C140.994 29.1441 141.624 27.9046 141.624 26.3022C141.624 25.1836 141.324 24.186 140.665 23.4302C139.796 22.7046 138.717 21.9488 137.159 21.3441ZM151.902 14.0278C149.175 14.0278 146.988 14.8441 145.459 16.4464C143.931 18.0488 143.152 20.2557 143.152 23.0371C143.152 25.6371 143.931 27.7534 145.429 29.2953C146.928 30.8069 148.966 31.5929 151.513 31.5929C154.18 31.5929 156.307 30.7767 157.836 29.1441C159.394 27.5115 160.143 25.3348 160.143 22.6441C160.143 19.9836 159.424 17.8674 157.956 16.3255C156.547 14.7836 154.479 14.0278 151.902 14.0278ZM154.989 26.9069C154.27 27.8441 153.131 28.2976 151.722 28.2976C150.284 28.2976 149.175 27.8441 148.366 26.8464C147.557 25.9092 147.168 24.5488 147.168 22.8255C147.168 21.0418 147.587 19.6813 148.366 18.7139C149.175 17.7464 150.284 17.2627 151.693 17.2627C153.041 17.2627 154.15 17.7162 154.929 18.6534C155.708 19.5906 156.128 20.9511 156.128 22.7348C156.128 24.5488 155.738 25.9697 154.989 26.9069ZM180.97 17.6255V14.3906H177.044V9.43247L176.925 9.46271L173.209 10.5813L173.119 10.6115V14.3906H167.245V12.2743C167.245 11.3069 167.485 10.5511 167.905 10.0674C168.324 9.58364 168.953 9.34178 169.733 9.34178C170.272 9.34178 170.841 9.46271 171.471 9.7348L171.62 9.8255V6.40922L171.531 6.37899C170.991 6.19759 170.272 6.07666 169.343 6.07666C168.174 6.07666 167.155 6.34875 166.226 6.80224C165.297 7.3162 164.608 8.01154 164.099 8.94875C163.589 9.85573 163.32 10.8836 163.32 12.0627V14.3906H160.593V17.5953H163.32V31.1395H167.245V17.6255H173.119V26.2418C173.119 29.779 174.767 31.5627 178.063 31.5627C178.603 31.5627 179.172 31.472 179.712 31.3813C180.281 31.2604 180.7 31.1092 180.94 30.9883L180.97 30.9581V27.7232L180.82 27.8441C180.581 27.9953 180.371 28.1162 180.011 28.2069C179.712 28.2976 179.442 28.3278 179.232 28.3278C178.453 28.3278 177.914 28.1464 177.524 27.6929C177.164 27.2697 176.985 26.5743 176.985 25.5464V17.6255H180.97Z" fill="#737373"/>
<path d="M0 0H18.3697V18.5326H0V0Z" fill="#F25022"/>
<path d="M20.2876 0H38.6573V18.5326H20.2876V0Z" fill="#7FBA00"/>
<path d="M0 20.4673H18.3697V38.9998H0V20.4673Z" fill="#00A4EF"/>
<path d="M20.2876 20.4673H38.6573V38.9998H20.2876V20.4673Z" fill="#FFB900"/>
</svg>
