<svg width="70" height="70" viewBox="0 0 70 70" fill="none" xmlns="http://www.w3.org/2000/svg">
<path d="M63.138 7.35687C63.1148 7.24467 63.06 7.14144 62.98 7.05934C62.9001 6.97723 62.7984 6.91966 62.6869 6.89339C55.2521 5.07503 38.0775 11.5541 28.7628 20.8619C27.1028 22.5084 25.589 24.2961 24.2388 26.2049C21.3677 25.9452 18.4966 26.1639 16.0521 27.2303C9.14916 30.2655 7.14076 38.1924 6.58021 41.5953C6.54984 41.7818 6.56281 41.9728 6.61812 42.1534C6.67343 42.334 6.7696 42.4995 6.89916 42.637C7.02872 42.7745 7.1882 42.8803 7.36524 42.9463C7.54228 43.0122 7.73212 43.0365 7.92006 43.0172L19.0038 41.8004C19.0115 42.6364 19.0617 43.4715 19.1542 44.3024C19.2121 44.8767 19.4683 45.4128 19.8788 45.8186L24.1704 50.1102C24.5765 50.521 25.1132 50.7773 25.688 50.8348C26.5139 50.9269 27.344 50.9771 28.1749 50.9852L26.9595 62.0594C26.9405 62.2471 26.965 62.4366 27.0309 62.6134C27.0969 62.7901 27.2026 62.9493 27.3399 63.0787C27.4772 63.2081 27.6424 63.3042 27.8228 63.3595C28.0031 63.4148 28.1938 63.428 28.38 63.3979C31.7843 62.851 39.7277 60.8426 42.7451 53.9411C43.8115 51.4938 44.0302 48.6377 43.7841 45.7803C45.6985 44.4313 47.4914 42.9176 49.1421 41.2563C58.491 31.9594 64.929 15.1621 63.138 7.35687Z" stroke="#545454" stroke-width="4" stroke-linecap="round" stroke-linejoin="round"/>
<path d="M39.2343 26.2236C39.4597 27.3561 40.0158 28.3963 40.8324 29.2127C41.374 29.7555 42.0174 30.1861 42.7257 30.4799C43.4339 30.7737 44.1932 30.925 44.96 30.925C45.7267 30.925 46.486 30.7737 47.1943 30.4799C47.9025 30.1861 48.5459 29.7555 49.0875 29.2127C49.9041 28.3963 50.4602 27.3561 50.6856 26.2236C50.9109 25.0912 50.7954 23.9173 50.3536 22.8505C49.9118 21.7837 49.1635 20.8718 48.2035 20.2303C47.2434 19.5888 46.1146 19.2463 44.96 19.2463C43.8053 19.2463 42.6765 19.5888 41.7165 20.2303C40.7564 20.8718 40.0081 21.7837 39.5663 22.8505C39.1245 23.9173 39.009 25.0912 39.2343 26.2236Z" stroke="#12A028" stroke-width="4" stroke-linecap="round" stroke-linejoin="round"/>
<path d="M14.9898 48.125C13.6269 48.2923 12.3589 48.9102 11.3873 49.8805C8.97832 52.2977 8.75 61.25 8.75 61.25C8.75 61.25 17.7078 61.0217 20.1182 58.61C21.0924 57.6399 21.7113 56.3698 21.875 55.0047" stroke="#545454" stroke-width="4" stroke-linecap="round" stroke-linejoin="round"/>
</svg>
