<svg width="71" height="71" viewBox="0 0 71 71" fill="none" xmlns="http://www.w3.org/2000/svg">
<path d="M47.0058 26.5385V19.2962C47.0058 19.0281 46.8982 18.7712 46.707 18.5832L35.5504 7.61254C35.3633 7.42862 35.1115 7.32556 34.8492 7.32556H4C3.44772 7.32556 3 7.77328 3 8.32556V65C3 65.5523 3.44772 66 4 66H46.0058C46.5581 66 47.0058 65.5523 47.0058 65V51.3602" stroke="#545454" stroke-width="4"/>
<mask id="path-2-inside-1_225_20568" fill="white">
<rect x="10.3344" y="23.4611" width="7.3343" height="7.3343" rx="1"/>
</mask>
<rect x="10.3344" y="23.4611" width="7.3343" height="7.3343" rx="1" stroke="#545454" stroke-width="4" mask="url(#path-2-inside-1_225_20568)"/>
<rect x="20.6023" y="23.4611" width="20.5361" height="2.20029" rx="1.10015" fill="#545454"/>
<rect x="20.6023" y="27.8782" width="9.5346" height="2.20029" rx="1.10015" fill="#545454"/>
<rect x="20.6023" y="35.1959" width="5.13401" height="2.20029" rx="1.10015" fill="#545454"/>
<rect x="20.6023" y="40.33" width="5.13401" height="2.20029" rx="1.10015" fill="#545454"/>
<rect x="20.6023" y="46.9308" width="9.5346" height="2.20029" rx="1.10015" fill="#545454"/>
<rect x="20.6023" y="52.0648" width="16.1355" height="2.20029" rx="1.10015" fill="#545454"/>
<mask id="path-9-inside-2_225_20568" fill="white">
<rect x="10.3344" y="35.1959" width="7.3343" height="7.3343" rx="1"/>
</mask>
<rect x="10.3344" y="35.1959" width="7.3343" height="7.3343" rx="1" stroke="#545454" stroke-width="4" mask="url(#path-9-inside-2_225_20568)"/>
<mask id="path-10-inside-3_225_20568" fill="white">
<rect x="10.3344" y="46.9308" width="7.3343" height="7.3343" rx="1"/>
</mask>
<rect x="10.3344" y="46.9308" width="7.3343" height="7.3343" rx="1" stroke="#545454" stroke-width="4" mask="url(#path-10-inside-3_225_20568)"/>
<circle cx="39.6715" cy="38.8631" r="13.402" stroke="#545454" stroke-width="4"/>
<mask id="path-12-inside-4_225_20568" fill="white">
<path fill-rule="evenodd" clip-rule="evenodd" d="M41.5232 34.5996C42.5567 33.566 44.2325 33.566 45.2661 34.5996C46.2997 35.6332 46.2997 37.309 45.2661 38.3425L40.482 43.1266C39.9602 43.6484 39.2747 43.9068 38.5908 43.9018C37.9112 43.9035 37.2311 43.6451 36.7126 43.1266L34.0767 40.4907C33.0432 39.4571 33.0432 37.7813 34.0767 36.7478C35.1103 35.7142 36.7861 35.7142 37.8197 36.7478L38.5973 37.5254L41.5232 34.5996Z"/>
</mask>
<path d="M45.2661 34.5996L47.3874 32.4783L47.3874 32.4783L45.2661 34.5996ZM41.5232 34.5996L39.4018 32.4783L39.4018 32.4783L41.5232 34.5996ZM45.2661 38.3425L47.3874 40.4639L45.2661 38.3425ZM40.482 43.1266L42.6033 45.248L42.6033 45.248L40.482 43.1266ZM38.5908 43.9018L38.613 40.9018L38.5981 40.9017L38.5832 40.9018L38.5908 43.9018ZM36.7126 43.1266L34.5913 45.2479L34.5913 45.2479L36.7126 43.1266ZM34.0767 40.4907L31.9554 42.612H31.9554L34.0767 40.4907ZM34.0767 36.7478L31.9554 34.6264L34.0767 36.7478ZM37.8197 36.7478L35.6984 38.8691H35.6984L37.8197 36.7478ZM38.5973 37.5254L36.476 39.6467L38.5973 41.768L40.7187 39.6467L38.5973 37.5254ZM47.3874 32.4783C45.1823 30.2731 41.607 30.2731 39.4018 32.4783L43.6445 36.7209C43.5065 36.8589 43.2828 36.8589 43.1448 36.7209L47.3874 32.4783ZM47.3874 40.4639C49.5926 38.2587 49.5926 34.6834 47.3874 32.4783L43.1448 36.7209C43.0068 36.5829 43.0068 36.3592 43.1448 36.2212L47.3874 40.4639ZM42.6033 45.248L47.3874 40.4639L43.1448 36.2212L38.3607 41.0053L42.6033 45.248ZM38.5687 46.9017C40.0228 46.9124 41.4905 46.3607 42.6033 45.248L38.3607 41.0053C38.4298 40.9361 38.5266 40.9012 38.613 40.9018L38.5687 46.9017ZM38.5832 40.9018C38.6692 40.9016 38.7653 40.9366 38.8339 41.0053L34.5913 45.2479C35.697 46.3536 37.1533 46.9054 38.5984 46.9018L38.5832 40.9018ZM38.8339 41.0053L36.1981 38.3694L31.9554 42.612L34.5913 45.2479L38.8339 41.0053ZM36.1981 38.3694C36.336 38.5074 36.336 38.7311 36.1981 38.8691L31.9554 34.6264C29.7503 36.8316 29.7503 40.4069 31.9554 42.612L36.1981 38.3694ZM36.1981 38.8691C36.0601 39.0071 35.8364 39.0071 35.6984 38.8691L39.941 34.6264C37.7358 32.4213 34.1606 32.4213 31.9554 34.6264L36.1981 38.8691ZM35.6984 38.8691L36.476 39.6467L40.7187 35.4041L39.941 34.6264L35.6984 38.8691ZM39.4018 32.4783L36.476 35.4041L40.7187 39.6467L43.6445 36.7209L39.4018 32.4783Z" fill="#12A028" mask="url(#path-12-inside-4_225_20568)"/>
<path d="M54.7814 51.5739L59.8152 56.6078C60.4951 57.2877 60.4951 58.3901 59.8152 59.07C59.1353 59.75 58.0329 59.75 57.3529 59.07L52.3191 54.0362L54.7814 51.5739Z" stroke="#545454" stroke-width="4"/>
<path d="M50.9478 47.5861L54.3011 50.9394L51.6846 53.5559L48.3312 50.2026L50.9478 47.5861Z" stroke="#545454" stroke-width="2"/>
</svg>
