<svg width="70" height="70" viewBox="0 0 70 70" fill="none" xmlns="http://www.w3.org/2000/svg">
<path d="M17.6459 65.6249H26.3959M15.4584 59.0624H28.5834M28.5834 52.4999V49.2187C28.5834 45.2539 32.8955 41.5037 35.6928 38.8281C39.6357 35.0587 41.7084 29.9947 41.7084 24.0625C41.7084 13.125 32.9953 4.37495 22.0209 4.37495C19.4335 4.36774 16.8701 4.87204 14.4783 5.85888C12.0864 6.84571 9.91322 8.2956 8.08363 10.1252C6.25404 11.9548 4.80414 14.128 3.81731 16.5198C2.83048 18.9117 2.32617 21.475 2.33339 24.0625C2.33339 29.7828 4.49491 35.19 8.34901 38.8281C11.1312 41.4544 15.4584 45.2128 15.4584 49.2187V52.4999H28.5834Z" stroke="#545454" stroke-width="4" stroke-linecap="round" stroke-linejoin="round"/>
<path d="M32.1381 25.0514V23.367C32.1381 17.7868 27.6013 13.2617 22.006 13.2617C20.4838 13.2599 18.9809 13.6012 17.609 14.2604C16.2371 14.9196 15.0316 15.8796 14.0823 17.069M11.9037 21.7036V23.388C11.9037 28.9744 16.4383 33.4961 22.0359 33.4961C23.5537 33.4939 25.0519 33.1532 26.4213 32.4989C27.7907 31.8446 28.9968 30.8931 29.9517 29.7137" stroke="#12A028" stroke-width="3" stroke-linecap="round" stroke-linejoin="round"/>
<path d="M9.44281 23.3789L11.9135 20.918L14.4965 23.3789M34.5991 23.3789L32.1284 25.8398L29.5453 23.3789" stroke="#12A028" stroke-width="2" stroke-linecap="round" stroke-linejoin="round"/>
</svg>
