<svg width="58" height="58" viewBox="0 0 58 58" fill="none" xmlns="http://www.w3.org/2000/svg">
<path fill-rule="evenodd" clip-rule="evenodd" d="M28.5144 17.5614C28.4014 17.6295 28.168 17.8467 27.9956 18.044C26.6114 19.6284 26.115 21.6808 26.6311 23.6861C26.6878 23.9063 26.7294 24.0916 26.7236 24.098C26.7178 24.1044 26.514 24.0468 26.2706 23.9701C25.8259 23.8299 25.0346 23.7288 24.73 23.7732C24.6401 23.7862 24.4779 23.8848 24.3697 23.9922L24.1729 24.1875L24.2029 24.7992C24.2441 25.6414 24.5079 26.3949 25.0015 27.0801C25.089 27.2015 25.087 27.2042 24.9118 27.2042C24.6614 27.2042 24.3945 27.3428 24.2825 27.5309C24.2145 27.6451 24.1876 27.8146 24.1876 28.1282C24.1876 28.8567 24.4737 29.7471 24.9098 30.3761L25.0827 30.6255H24.9077C24.6611 30.6255 24.3938 30.7652 24.2825 30.9522C24.2145 31.0664 24.1876 31.2359 24.1876 31.5495C24.1876 32.278 24.4737 33.1684 24.9098 33.7974L25.0827 34.0469H24.9392C24.7193 34.0469 24.4424 34.1818 24.3022 34.3575C24.184 34.5054 24.1775 34.5542 24.2029 35.0953C24.3015 37.1951 25.9852 38.9368 28.1315 39.1595L28.4695 39.1945V40.4424C28.4695 41.1288 28.4936 41.7737 28.523 41.8755C28.6545 42.3305 29.1742 42.3305 29.3057 41.8755C29.3351 41.7737 29.3592 41.1302 29.3592 40.4456V39.2009L29.8203 39.1348C30.3552 39.058 31.0562 38.8367 31.3171 38.6622C31.5742 38.4903 31.6371 38.2833 31.4915 38.0889C31.334 37.8786 31.092 37.8658 30.6869 38.0462C30.3693 38.1876 29.734 38.3482 29.4843 38.3501C29.3739 38.351 29.3592 38.3233 29.3592 38.1155C29.3592 37.7701 29.56 37.1061 29.7885 36.6956C29.905 36.4864 30.1641 36.1643 30.4105 35.9224C31.0108 35.3334 31.6784 35.0096 32.515 34.9018L32.8069 34.8642V35.0926C32.8069 35.4462 32.6471 35.9953 32.4105 36.4544C32.1535 36.953 32.1384 37.1398 32.3418 37.2986C32.6439 37.5345 32.8746 37.3818 33.1951 36.7339C33.4816 36.1549 33.6391 35.5238 33.6402 34.951C33.6409 34.5744 33.6219 34.479 33.5205 34.3511C33.3859 34.1813 33.1071 34.0469 32.8895 34.0469H32.746L32.9189 33.7974C33.355 33.1684 33.6411 32.278 33.6411 31.5495C33.6411 31.2359 33.6141 31.0664 33.5462 30.9522C33.4349 30.7652 33.1676 30.6255 32.921 30.6255H32.746L32.9189 30.3761C33.355 29.7471 33.6411 28.8567 33.6411 28.1282C33.6411 27.8146 33.6141 27.6451 33.5462 27.5309C33.4342 27.3428 33.1673 27.2042 32.9169 27.2042C32.7417 27.2042 32.7397 27.2015 32.8272 27.0801C33.313 26.4057 33.5833 25.6419 33.6258 24.8229C33.654 24.2787 33.6472 24.2224 33.5336 24.0641C33.4661 23.97 33.3573 23.8646 33.2918 23.8298C33.0314 23.6915 31.8589 23.8169 31.3188 24.0408C31.2131 24.0847 31.1185 24.1125 31.1087 24.1027C31.0988 24.0929 31.1371 23.9188 31.1938 23.7159C31.3656 23.1012 31.4399 22.1837 31.3694 21.548C31.2183 20.1858 30.7286 19.069 29.8331 18.044C29.4654 17.6231 29.1842 17.4375 28.9143 17.4375C28.8073 17.4375 28.6273 17.4932 28.5144 17.5614ZM29.2096 18.5958C29.7653 19.209 30.1668 19.9675 30.3929 20.8312C30.6342 21.7523 30.5942 22.9326 30.2919 23.8105C30.0478 24.5198 29.6342 25.2126 29.1067 25.796L28.9081 26.0158L28.7155 25.796C27.9985 24.9784 27.541 24.0806 27.3522 23.1207C27.3134 22.9235 27.2839 22.4516 27.2867 22.0723C27.2945 21.0092 27.5898 20.0367 28.1669 19.174C28.3928 18.8362 28.8447 18.3199 28.9143 18.3199C28.9393 18.3199 29.0722 18.444 29.2096 18.5958ZM18.6537 20.4635C18.2898 20.6837 17.6899 21.4526 17.3339 22.155C16.7079 23.3906 16.5764 24.9931 16.9913 26.3337C17.0182 26.4206 17.005 26.4223 16.8367 26.3525C16.5621 26.2387 15.8345 26.1006 15.5095 26.1006C15.1296 26.1006 14.8773 26.226 14.7589 26.4736C14.5303 26.9516 14.8489 28.3244 15.353 29.0338C15.4889 29.2249 15.4849 29.246 15.3127 29.246C15.0984 29.246 14.8592 29.4092 14.7555 29.6261C14.6383 29.8713 14.6819 30.5538 14.85 31.102C15.3131 32.6134 16.704 33.7782 18.2237 33.9273L18.599 33.9641L18.6268 35.7023C18.6421 36.6584 18.6758 37.4731 18.7017 37.513C18.8363 37.7198 19.2777 37.6966 19.3874 37.4769C19.4125 37.4266 19.4456 36.6156 19.4609 35.6747L19.4887 33.9641L19.8635 33.9273C21.2213 33.7941 22.542 32.7908 23.0923 31.4745C23.2939 30.9922 23.3754 30.5964 23.3785 30.0833L23.3813 29.6239L23.1736 29.4349C23.0331 29.3072 22.9116 29.246 22.7983 29.246C22.7061 29.246 22.6306 29.2311 22.6306 29.2129C22.6306 29.1947 22.7193 29.0372 22.8278 28.8628C23.0825 28.4532 23.2838 27.8738 23.3621 27.3248C23.4386 26.7881 23.3953 26.5348 23.1878 26.3051L23.028 26.1282L22.4539 26.1346C22.0013 26.1397 21.7938 26.17 21.4728 26.2779L21.0658 26.4148L21.1027 26.2715C21.3515 25.3059 21.3842 24.3336 21.1975 23.4518C21.0008 22.5226 20.5132 21.5798 19.8482 20.8429C19.6899 20.6674 19.4892 20.4874 19.4022 20.4428C19.1863 20.332 18.8559 20.3411 18.6537 20.4635ZM38.4348 20.4506C38.1881 20.5754 37.7189 21.1157 37.348 21.7018C36.5178 23.0141 36.3001 24.6177 36.727 26.2756L36.765 26.4231L36.3416 26.2896C36.1087 26.2162 35.7123 26.142 35.4608 26.1245C34.9163 26.0869 34.6739 26.1796 34.5132 26.4869C34.2754 26.9415 34.5946 28.3313 35.1001 29.0423C35.1607 29.1275 35.2013 29.2026 35.1903 29.2091C35.1793 29.2157 35.06 29.2577 34.9251 29.3025C34.5436 29.4292 34.446 29.6043 34.4542 30.1473C34.4798 31.8499 35.7924 33.4546 37.481 33.8477C37.6782 33.8936 37.9583 33.9463 38.1036 33.9648L38.3678 33.9985V35.7082V37.418L38.5043 37.5534C38.6782 37.7261 38.8914 37.7261 39.0654 37.5534L39.2019 37.418V35.71V34.002L39.4938 33.9654C39.9819 33.9042 40.595 33.7203 40.9797 33.5197C42.2633 32.8503 43.1078 31.5185 43.1184 30.1468C43.1221 29.6586 43.1163 29.6342 42.9578 29.4696C42.8538 29.3615 42.7159 29.2865 42.5824 29.2654C42.3586 29.2298 42.3256 29.187 42.4459 29.0879C42.5523 29.0003 42.9228 28.1977 43.0154 27.8542C43.0586 27.694 43.1083 27.3643 43.1259 27.1215C43.164 26.5946 43.0686 26.3521 42.7608 26.1933C42.5069 26.0623 41.9144 26.0983 41.2702 26.2838C40.9349 26.3804 40.8161 26.3969 40.8366 26.3439C40.8521 26.3038 40.8964 26.1191 40.935 25.9335C40.9949 25.6456 40.993 25.5744 40.9221 25.4489C40.7967 25.2273 40.5729 25.1693 40.3835 25.3092C40.2994 25.3713 40.2127 25.4816 40.1908 25.5544C39.9162 26.4656 39.8173 26.7187 39.5825 27.1094C39.4326 27.3589 39.1907 27.6971 39.0449 27.8611L38.7798 28.1593L38.4368 27.7362C38.0271 27.2307 37.6318 26.4592 37.4717 25.8523C37.3211 25.2811 37.3067 24.2187 37.4417 23.6271C37.5592 23.112 37.8163 22.4987 38.0928 22.0741C38.3141 21.7345 38.7387 21.2445 38.8118 21.2445C38.9026 21.2445 39.5034 22.0657 39.7077 22.4691C39.8281 22.7065 39.9912 23.1303 40.0703 23.4109C40.1556 23.7136 40.2595 23.9601 40.3259 24.0175C40.5775 24.2349 40.9814 24.0365 40.9814 23.6955C40.9814 22.9089 40.0051 21.0958 39.2903 20.5548C39.0385 20.3642 38.6896 20.3218 38.4348 20.4506ZM19.6569 21.9469C20.8872 23.7427 20.7375 26.271 19.3103 27.8037L19.0206 28.1147L18.824 27.894C18.3278 27.3368 17.9544 26.6407 17.7287 25.8523C17.5656 25.2823 17.5484 24.1819 17.6933 23.5893C17.8838 22.8104 18.2827 22.0458 18.8255 21.4192L19.0327 21.18L19.246 21.4192C19.3633 21.5508 19.5482 21.7882 19.6569 21.9469ZM26.1455 24.8004C26.6447 24.9727 27.219 25.3562 27.5809 25.7591C28.0743 26.3085 28.4663 27.2242 28.4686 27.8329L28.4695 28.0477L28.1488 28.0144C26.5569 27.8493 25.1686 26.4759 25.038 24.937L25.0071 24.5735L25.3749 24.6174C25.5772 24.6416 25.9239 24.7239 26.1455 24.8004ZM32.7249 25.3419C32.4654 26.353 31.7721 27.2149 30.8422 27.6826C30.5298 27.8397 29.8158 28.032 29.5449 28.032C29.3672 28.032 29.3593 28.023 29.36 27.825C29.3624 27.2219 29.7574 26.3052 30.2521 25.7544C30.7967 25.148 31.6627 24.7022 32.4611 24.617L32.7791 24.5831L32.7963 24.7901C32.8057 24.9039 32.7735 25.1522 32.7249 25.3419ZM16.1544 27.0119C17.4511 27.339 18.4273 28.4244 18.5993 29.7303L18.6376 30.0216L18.3959 29.9876C17.415 29.8501 16.5907 29.3519 16.0464 28.5676C15.8155 28.2349 15.5935 27.647 15.5367 27.218L15.4984 26.9283H15.6607C15.7499 26.9283 15.9722 26.966 16.1544 27.0119ZM22.5483 27.1628C22.4265 27.9468 22.1397 28.5196 21.6021 29.0531C21.0617 29.5894 20.472 29.8784 19.6972 29.9868C19.4675 30.0189 19.4609 30.0155 19.4609 29.8652C19.4609 29.6021 19.6205 29.0711 19.8236 28.6581C20.2752 27.7399 21.4439 26.9572 22.3992 26.933L22.5848 26.9283L22.5483 27.1628ZM36.2202 27.1235C37.3447 27.5051 38.1945 28.5498 38.3462 29.7371L38.3843 30.0349L38.0841 29.9958C36.6364 29.8072 35.4875 28.6544 35.2825 27.1847L35.2451 26.9168L35.5414 26.9553C35.7043 26.9764 36.0098 27.0521 36.2202 27.1235ZM42.2933 27.2048C42.0981 28.6655 40.95 29.8027 39.4742 29.9969L39.1893 30.0344L39.2285 29.7368C39.3301 28.9665 39.6819 28.3178 40.3057 27.7505C40.8146 27.2878 41.5896 26.9529 42.198 26.9327C42.325 26.9285 42.3288 26.9394 42.2933 27.2048ZM25.7606 28.1393C27.2347 28.5134 28.3278 29.7303 28.4526 31.136C28.491 31.5695 28.523 31.5538 27.8694 31.422C26.5266 31.1513 25.4144 30.0968 25.1083 28.8045C25.0616 28.6072 25.023 28.3527 25.0226 28.2389C25.0218 28.0481 25.0341 28.032 25.1797 28.032C25.2665 28.032 25.528 28.0803 25.7606 28.1393ZM32.8061 28.2389C32.8048 28.5792 32.6484 29.1369 32.431 29.5771C32.1316 30.1834 31.4876 30.8114 30.8575 31.1118C30.5993 31.2349 30.1951 31.3745 29.9593 31.422C29.3057 31.5538 29.3377 31.5695 29.3761 31.136C29.4742 30.0315 30.2731 28.902 31.3122 28.3989C31.6514 28.2347 32.3559 28.0395 32.6262 28.035C32.7986 28.0321 32.8069 28.0415 32.8061 28.2389ZM16.1743 30.1585C17.0207 30.3565 17.8847 31.036 18.2661 31.8035C18.4705 32.2149 18.6745 33.0319 18.5913 33.106C18.4967 33.1903 17.7179 33.0058 17.2964 32.7991C16.7418 32.5273 16.119 31.9131 15.8595 31.3824C15.6826 31.0204 15.5152 30.4473 15.5136 30.1979C15.5126 30.0455 15.6548 30.037 16.1743 30.1585ZM22.543 30.3082C22.4332 31.081 22.1442 31.6571 21.5902 32.2075C21.1078 32.6868 20.5651 32.9706 19.9178 33.0822C19.6825 33.1227 19.4784 33.1445 19.4644 33.1306C19.3886 33.0554 19.5959 32.2614 19.7982 31.8518C20.281 30.8747 21.4105 30.1032 22.3949 30.0783L22.5763 30.0737L22.543 30.3082ZM36.2325 30.263C36.729 30.4418 37.0351 30.6362 37.418 31.0162C37.9394 31.5336 38.2541 32.1594 38.3413 32.852L38.3817 33.1728L38.1106 33.1355C37.354 33.0316 36.7587 32.7383 36.2207 32.2044C35.6887 31.6764 35.4037 31.1004 35.2792 30.3011L35.2415 30.0595L35.5664 30.0998C35.7451 30.1219 36.0448 30.1953 36.2325 30.263ZM42.2919 30.3634C42.1033 31.7896 40.9324 32.9499 39.4938 33.1365C39.1535 33.1805 39.1571 33.1898 39.2833 32.5985C39.4755 31.6986 40.0925 30.8878 40.9289 30.436C41.2149 30.2816 41.9051 30.0818 42.1702 30.0768L42.3303 30.0737L42.2919 30.3634ZM26.1256 31.6649C27.3862 32.1085 28.3405 33.2946 28.4526 34.5573C28.491 34.9908 28.523 34.9751 27.8694 34.8434C26.5266 34.5726 25.4144 33.5182 25.1083 32.2258C25.0616 32.0286 25.023 31.7708 25.0226 31.6531L25.0218 31.439L25.361 31.4771C25.5475 31.498 25.8916 31.5826 26.1256 31.6649ZM32.8061 31.6602C32.8048 32.0005 32.6484 32.5582 32.431 32.9984C32.1316 33.6047 31.4876 34.2327 30.8575 34.5331C30.5993 34.6562 30.1951 34.7958 29.9593 34.8434C29.3057 34.9751 29.3377 34.9908 29.3761 34.5573C29.4856 33.3247 30.4334 32.1213 31.6383 31.6854C32.0396 31.5401 32.3529 31.4685 32.6262 31.4594C32.7992 31.4536 32.8069 31.4622 32.8061 31.6602ZM25.9671 35.0484C26.1659 35.1097 26.4787 35.2385 26.6622 35.3345C27.1042 35.5659 27.7864 36.2397 28.0402 36.6956C28.2687 37.1061 28.4695 37.7701 28.4695 38.1155C28.4695 38.3375 28.4604 38.3511 28.3115 38.3511C28.044 38.3511 27.336 38.148 26.9337 37.9558C26.4471 37.7233 25.6857 36.9884 25.4279 36.5021C25.2157 36.1021 25.0218 35.4348 25.0218 35.105V34.8642L25.3137 34.9005C25.4742 34.9205 25.7683 34.987 25.9671 35.0484Z" fill="#2966FF"/>
<path fill-rule="evenodd" clip-rule="evenodd" d="M12.8382 0.0305071C9.11097 0.415385 6.36886 1.56245 4.17879 3.65266C3.02277 4.75609 2.29116 5.72987 1.64464 7.02557C-0.546894 11.4183 -0.532525 17.1072 1.68673 23.6288L2.02844 24.6326L1.45874 25.2552C-0.486248 27.3813 -0.486248 30.4153 1.45874 32.5414L2.02844 33.1639L1.68673 34.1678C-0.849562 41.6211 -0.479459 48.2291 2.71433 52.5129C4.7004 55.1767 7.38254 56.7937 11.0219 57.5214C12.6706 57.8511 16.0179 57.873 17.9708 57.5669C20.9208 57.1047 24.0331 56.1549 27.1832 54.7554L28.9688 53.9622L29.9553 54.4189C37.067 57.7121 43.4877 58.6323 48.6133 57.093C49.8921 56.7089 50.8784 56.2492 52.0271 55.5016C54.8553 53.6612 56.759 50.7559 57.5573 47.0618C57.8509 45.7032 57.8459 40.8501 57.5491 39.2408C56.9725 36.1148 56.0303 33.2354 54.4706 29.8336L54.0444 28.9039L54.6206 27.6295C56.2285 24.0739 57.1842 20.9977 57.6372 17.9196C57.8783 16.2813 57.8786 12.4268 57.6376 11.1363C57.0694 8.09396 55.7971 5.61966 53.8374 3.74625C51.8723 1.86764 49.669 0.786474 46.6691 0.228767C45.1281 -0.0577719 41.7702 -0.0578849 39.9525 0.228541C36.8276 0.720914 33.6413 1.70758 30.3439 3.20392L28.954 3.83475L27.6849 3.26428C24.0503 1.63049 20.948 0.666997 17.9481 0.240297C16.6992 0.0627216 13.7138 -0.0599195 12.8382 0.0305071ZM16.9908 1.82502C19.9815 2.17452 23.1813 3.09348 26.4102 4.53025L27.0834 4.82979L25.8523 5.56857C18.5379 9.95754 11.3007 16.8895 6.95122 23.6724C6.94059 23.689 6.59345 23.6548 6.17968 23.5962C5.4836 23.4978 4.59053 23.5578 3.82227 23.7547C3.5205 23.832 3.51575 23.8237 3.06678 22.4205C1.2682 16.8002 1.24026 11.8259 2.98656 8.14313C3.57628 6.89943 3.97343 6.30408 4.82984 5.38003C7.53065 2.4657 11.798 1.21826 16.9908 1.82502ZM46.5845 1.93693C53.7196 3.3226 57.2245 9.2486 55.9454 17.7645C55.7333 19.1771 55.2255 21.2767 54.7562 22.6815C54.35 23.8971 53.2063 26.7608 53.0727 26.8966C53.0243 26.9458 52.7401 26.5643 52.4411 26.0488C51.2287 23.9589 49.4722 21.4409 47.5233 18.9994L47.0652 18.4257L47.5041 17.5785C48.3265 15.9909 48.369 14.3362 47.6276 12.7842C47.1379 11.7591 47.0883 11.74 46.3714 12.2978C46.0373 12.5578 45.7542 12.7764 45.7423 12.7836C45.7304 12.7907 45.8804 13.1185 46.0755 13.5119C46.5024 14.3723 46.5588 15.3734 46.2336 16.32C45.9779 17.0642 45.1793 17.9633 44.4184 18.3637C43.9089 18.6317 43.713 18.6678 42.7656 18.6682C41.7873 18.6688 41.6367 18.6389 41.0905 18.3367C40.408 17.9589 39.8383 17.375 39.4623 16.6675C39.2463 16.2612 39.204 16.0071 39.2029 15.1082C39.2017 14.2126 39.2449 13.9464 39.4631 13.5037C39.8184 12.783 40.5447 12.0804 41.2946 11.7319C42.1193 11.3486 43.3546 11.3287 44.1466 11.686L44.6791 11.9262L45.0904 11.1915C45.3167 10.7874 45.4833 10.4384 45.4608 10.4159C45.3129 10.2682 44.2417 9.89899 43.6463 9.79059C42.4442 9.57176 41.003 9.85807 39.9433 10.5263L39.4646 10.8282L38.8804 10.363C36.5003 8.46765 34.4335 7.01291 32.2762 5.71427C31.5422 5.27242 30.9235 4.89399 30.9012 4.8733C30.8386 4.81487 32.2438 4.19872 33.7126 3.64045C36.0512 2.75156 38.9337 2.03673 41.2381 1.7745C42.5042 1.63038 45.4699 1.72047 46.5845 1.93693ZM30.4355 6.58644C32.7745 7.9321 35.3773 9.73803 37.954 11.8029L38.2724 12.058L37.8933 12.8767C37.57 13.5753 37.5074 13.8502 37.467 14.7514C37.4086 16.0551 37.6354 16.9878 38.2346 17.9091C38.9914 19.0727 40.0776 19.8934 41.3392 20.2551C42.3333 20.5401 43.8383 20.4453 44.8022 20.0371C45.2067 19.8657 45.614 19.7051 45.7074 19.6801C45.885 19.6325 46.2191 20.0238 47.7859 22.1148C49.4432 24.3267 52.0436 28.4786 52.0436 28.9131C52.0436 29.1619 50.6724 31.4809 49.3787 33.4196C47.3642 36.4387 45.0615 39.2382 42.404 41.8994L40.8415 43.464L40.2675 43.0781C38.7297 42.0443 36.3257 41.9501 34.7887 42.8637C33.9562 43.3584 33.9779 43.2915 34.4552 43.8923C34.6946 44.1937 34.9299 44.4874 34.978 44.5447C35.0289 44.6054 35.3157 44.5107 35.6625 44.3186C36.2053 44.0183 36.3575 43.9882 37.3345 43.9888C38.282 43.9893 38.4779 44.0253 38.9874 44.2933C39.7535 44.6965 40.5483 45.5935 40.7979 46.3371C41.0853 47.1928 41.0455 48.2923 40.6997 49.0468C40.3033 49.9117 39.7983 50.4303 38.9426 50.8512C37.4913 51.565 35.8274 51.27 34.6859 50.0966C34.022 49.4142 33.713 48.592 33.7163 47.5162C33.718 46.9424 33.7869 46.551 33.9488 46.1944C34.0753 45.9158 34.1379 45.673 34.0878 45.6548C34.0376 45.6367 33.7166 45.4465 33.3744 45.2323C32.6425 44.7743 32.6157 44.7904 32.241 45.9156C31.9189 46.8825 31.9198 48.2859 32.2429 49.2443C32.3736 49.6318 32.4652 49.9622 32.4466 49.9785C32.0867 50.293 29.1486 51.9571 28.9534 51.9571C28.5299 51.9571 24.2237 49.2676 22.1249 47.6921C18.4942 44.9669 14.9006 41.5512 11.9846 38.054C11.1054 36.9996 9.45165 34.8172 8.88988 33.9698L8.46762 33.333L9.08302 32.7516C10.0844 31.8055 10.7407 30.3383 10.7437 29.0396C10.7451 28.3714 10.7711 28.3839 9.65633 28.5177L9.07668 28.5872L9.01581 29.2579C8.76972 31.9696 5.69914 33.4371 3.36515 31.9584C2.81537 31.6101 2.25869 30.9408 1.94799 30.2547C1.6606 29.62 1.69816 28.0674 2.01656 27.4135C2.41993 26.5853 2.99233 26.0025 3.78527 25.6125C4.77745 25.1246 5.86207 25.1085 6.8839 25.5665C7.53065 25.8565 8.26723 26.5003 8.56933 27.0395C8.68837 27.2519 8.7171 27.247 9.43864 26.8916L10.1848 26.524L9.9951 26.1575C9.89066 25.9558 9.50789 25.4814 9.14435 25.1032L8.48323 24.4155L9.0312 23.6209C12.35 18.8082 17.0664 13.9157 21.89 10.2823C24.2046 8.53875 28.5024 5.83951 28.9638 5.83951C29.0592 5.83951 29.7214 6.17567 30.4355 6.58644ZM41.9735 15.0467V15.8995H42.8271H43.6807L43.6474 15.08L43.6142 14.2605L42.7938 14.2273L41.9735 14.194V15.0467ZM4.56915 28.1472C4.53679 28.2315 4.5257 28.6257 4.54448 29.0232L4.57854 29.746L5.39885 29.7793L6.21917 29.8125V28.9033V27.994H5.42363C4.85858 27.994 4.61101 28.0385 4.56915 28.1472ZM53.6706 32.2012C54.7037 34.6292 55.426 37.0524 55.904 39.693C56.2635 41.6783 56.2636 44.9713 55.9043 46.6416C55.0863 50.4447 53.0759 53.1838 49.9504 54.7539C49.0997 55.1812 47.3851 55.7284 46.2731 55.9275C45.0143 56.1528 41.648 56.1217 40.1066 55.8705C37.4604 55.4393 34.0538 54.4107 31.6346 53.3124C30.7385 52.9055 30.6626 53.0376 32.3768 52.0221L33.4724 51.3731L34.074 51.8268C35.7373 53.0807 37.7969 53.2946 39.6593 52.4066C42.27 51.162 43.4212 48.051 42.2519 45.4012L41.9775 44.7795L43.7428 42.9709C46.6552 39.9872 48.731 37.4449 50.849 34.2674C51.5534 33.2105 52.3246 32.0029 52.5628 31.5837C52.801 31.1646 53.0317 30.8594 53.0755 30.9055C53.1193 30.9517 53.3871 31.5347 53.6706 32.2012ZM4.77677 34.2132C5.1471 34.2665 5.75164 34.2609 6.17968 34.2003C6.59345 34.1418 6.94059 34.1075 6.95122 34.1242C7.44635 34.8962 8.76859 36.7314 9.53844 37.7149C14.1053 43.5492 19.7308 48.5552 25.8399 52.2207L27.0743 52.9613L26.4057 53.2613C21.7456 55.3519 16.6969 56.4011 12.981 56.051C10.5358 55.8208 8.47361 55.1619 6.81782 54.0821C1.72588 50.7614 0.34572 43.8789 3.06678 35.3761C3.51575 33.9729 3.5205 33.9646 3.82227 34.0419C3.98927 34.0847 4.41877 34.1618 4.77677 34.2132ZM36.5425 47.6103V48.463L37.3628 48.4298L38.1831 48.3965L38.2164 47.577L38.2496 46.7576H37.3961H36.5425V47.6103Z" fill="#2966FF"/>
</svg>
