<svg width="57" height="57" viewBox="0 0 57 57" fill="none" xmlns="http://www.w3.org/2000/svg">
<path fill-rule="evenodd" clip-rule="evenodd" d="M26.5696 0.1188C25.4015 0.342259 24.6668 0.60045 23.5029 1.19676C18.481 3.76935 16.2283 9.50602 18.1508 14.8262C18.7155 16.389 19.4994 17.5505 20.9916 19.0348C22.8292 20.8628 22.8865 20.9999 22.9703 23.763C23.0335 25.844 23.0427 25.9074 23.3946 26.6588C23.5925 27.0813 23.9716 27.663 24.2371 27.9514C24.8317 28.5974 26.069 29.2378 26.9308 29.3456L27.564 29.4248V31.6908V33.9566L26.739 33.5463L25.9142 33.136L23.0474 33.0983L20.1807 33.0605L20.2397 34.0959C20.3459 35.9615 21.2184 37.3108 22.8364 38.1118L23.7041 38.5414L25.634 38.5817L27.564 38.6221V43.6498V48.6775L26.739 48.2672L25.9142 47.8569L23.0474 47.8192L20.1807 47.7814L20.2406 48.8324C20.2923 49.7397 20.357 49.9984 20.7147 50.7228C21.2159 51.7384 21.893 52.3974 22.9493 52.8977C23.6995 53.2531 23.759 53.2619 25.6402 53.3021L27.564 53.343V54.2514V55.1599H19.7542H11.9444V51.0309V46.9019L14.4424 46.8519C16.6312 46.8081 17.0233 46.7715 17.6106 46.556C18.6329 46.1807 19.4395 45.6745 20.1527 44.9603C21.3412 43.7702 21.9197 42.4301 22.0215 40.6312L22.0856 39.5006L18.6516 39.5455C15.4763 39.5869 15.1671 39.6091 14.5473 39.8393C13.6886 40.1584 12.7619 40.6898 12.41 41.065C12.2582 41.2267 12.0914 41.359 12.0393 41.359C11.9871 41.359 11.9444 40.738 11.9444 39.979C11.9444 38.7786 11.9689 38.5989 12.1321 38.5989C13.0079 38.5989 14.2964 37.5852 14.5611 36.6879C14.642 36.414 14.7008 35.5283 14.7008 34.5854C14.7008 32.6835 14.7924 32.3714 15.5178 31.8023C16.4723 31.0535 17.7471 29.6811 18.178 28.9383C18.4164 28.5271 18.7484 27.7767 18.9157 27.2707C19.1842 26.4583 19.2198 26.1689 19.2198 24.798C19.2198 23.4272 19.1842 23.1378 18.9157 22.3254C18.4715 20.9818 17.8744 20.037 16.7699 18.9304C15.9995 18.1586 15.5846 17.8472 14.8156 17.4637C13.3861 16.7509 12.6126 16.5765 10.9107 16.5833C9.6111 16.5886 9.37979 16.6227 8.46892 16.9426C7.06913 17.4344 6.29676 17.9223 5.22785 18.9902C4.17663 20.0404 3.57241 21.0035 3.13552 22.3254C2.86711 23.1376 2.83139 23.4275 2.83116 24.798C2.83094 26.1537 2.86792 26.4624 3.123 27.2324C3.70138 28.9785 4.78534 30.4311 6.53335 31.8023C7.25874 32.3714 7.35039 32.6835 7.35039 34.5854C7.35039 35.5283 7.4092 36.414 7.49005 36.6879C7.75478 37.5852 9.04328 38.5989 9.91913 38.5989C10.0897 38.5989 10.1068 39.019 10.1068 43.1992C10.1068 45.7293 10.0859 47.7994 10.0603 47.7994C10.0347 47.7994 9.79268 47.6146 9.52266 47.3886C8.96886 46.9253 8.40104 46.6153 7.47076 46.2684C6.89157 46.0524 6.52267 46.0266 3.41678 45.986L0 45.9414V46.6767C0 48.4886 0.651084 50.1378 1.8415 51.3409C2.64247 52.1505 3.24175 52.5367 4.35051 52.9581C5.05868 53.2272 5.28229 53.2503 7.60881 53.2947L10.1068 53.3423V54.2511V55.1599H6.89099H3.6752V56.0799V57H28.4828H53.2904V56.0799V55.1599H50.0746H46.8588V51.0309V46.9019L49.3567 46.8519C51.5456 46.8081 51.9376 46.7715 52.525 46.556C53.5473 46.1807 54.3539 45.6745 55.0671 44.9603C56.2555 43.7702 56.834 42.4301 56.9359 40.6312L57 39.5006L53.566 39.5455C50.3906 39.5869 50.0814 39.6091 49.4617 39.8393C48.603 40.1584 47.6763 40.6898 47.3244 41.065C47.1725 41.2267 47.0058 41.359 46.9536 41.359C46.9015 41.359 46.8588 40.738 46.8588 39.979C46.8588 38.7786 46.8832 38.5989 47.0464 38.5989C47.9223 38.5989 49.2108 37.5852 49.4755 36.6879C49.5564 36.414 49.6152 35.5283 49.6152 34.5854C49.6152 32.6835 49.7068 32.3714 50.4322 31.8023C51.3867 31.0535 52.6614 29.6811 53.0924 28.9383C53.3308 28.5271 53.6628 27.7767 53.83 27.2707C54.0985 26.4583 54.1342 26.1689 54.1342 24.798C54.1342 23.4272 54.0985 23.1378 53.83 22.3254C53.3859 20.9818 52.7888 20.037 51.6843 18.9304C50.9139 18.1586 50.4989 17.8472 49.73 17.4637C48.3005 16.7509 47.527 16.5765 45.8251 16.5833C44.5255 16.5886 44.2942 16.6227 43.3833 16.9426C41.9835 17.4344 41.2111 17.9223 40.1422 18.9902C39.091 20.0404 38.4868 21.0035 38.0499 22.3254C37.7815 23.1376 37.7458 23.4275 37.7455 24.798C37.7453 26.1537 37.7823 26.4624 38.0374 27.2324C38.6157 28.9785 39.6997 30.4311 41.4477 31.8023C42.1731 32.3714 42.2648 32.6835 42.2648 34.5854C42.2648 35.5283 42.3236 36.414 42.4044 36.6879C42.6691 37.5852 43.9576 38.5989 44.8335 38.5989C45.004 38.5989 45.0212 39.019 45.0212 43.1992C45.0212 45.7293 45.0003 47.7994 44.9746 47.7994C44.949 47.7994 44.707 47.6146 44.437 47.3886C43.8832 46.9253 43.3154 46.6153 42.3851 46.2684C41.8059 46.0524 41.437 46.0266 38.3312 45.986L34.9144 45.9414V46.6767C34.9144 48.4886 35.5655 50.1378 36.7559 51.3409C37.5568 52.1505 38.1561 52.5367 39.2649 52.9581C39.973 53.2272 40.1967 53.2503 42.5232 53.2947L45.0212 53.3423V54.2511V55.1599H37.2114H29.4016V50.5712V45.9826L31.3253 45.9416C33.2066 45.9015 33.266 45.8926 34.0162 45.5373C35.0725 45.037 35.7497 44.378 36.2509 43.3624C36.6085 42.6379 36.6733 42.3793 36.725 41.472L36.7848 40.4209L33.9182 40.4588L31.0514 40.4965L30.2265 40.9067L29.4016 41.3171V39.9708V38.6245L31.4402 38.5707C33.1384 38.5258 33.5906 38.4762 34.149 38.2732C35.1634 37.9044 35.9753 37.3965 36.682 36.6887C37.8645 35.5047 38.4523 34.1447 38.5578 32.3495L38.6241 31.2181L35.6494 31.2652C32.9573 31.308 32.6112 31.336 32.0045 31.5601C31.2319 31.8457 30.1852 32.4235 29.97 32.683C29.8889 32.7809 29.7277 32.9118 29.612 32.9739C29.4121 33.081 29.4016 32.9952 29.4016 31.2557V29.4248L30.0347 29.3456C30.8966 29.2378 32.1339 28.5974 32.7284 27.9514C32.994 27.663 33.3729 27.0813 33.5704 26.6588C33.922 25.9069 33.931 25.844 34.0002 23.7055C34.0896 20.9375 34.11 20.8887 35.9488 19.055C37.7869 17.222 38.6836 15.6973 39.2431 13.4541C39.5157 12.3608 39.5158 9.63402 39.2434 8.54145C38.2153 4.41972 35.1251 1.29015 31.1007 0.294991C29.8653 -0.0104678 27.6884 -0.0951129 26.5696 0.1188ZM30.8331 2.08956C36.8286 3.72772 39.5635 10.812 36.1902 15.9663C35.8883 16.4276 35.0932 17.3433 34.4233 18.0011C32.951 19.4469 32.5439 20.1338 32.2184 21.7216C32.1546 22.0327 32.1394 22.0379 31.2944 22.0379H30.4352L30.4375 21.5491C30.4388 21.2802 30.5411 19.6112 30.6649 17.8401C30.7887 16.069 30.8911 14.4259 30.8923 14.1886L30.8946 13.7574H31.714C32.8866 13.7574 33.38 13.5766 34.0569 12.8987C35.2188 11.7352 35.2188 10.2592 34.0569 9.09567C32.8858 7.92306 31.3153 7.92306 30.1442 9.09567C29.5281 9.71257 29.2867 10.2733 29.2867 11.0874C29.2867 11.8568 29.228 11.9173 28.4828 11.9173C27.7375 11.9173 27.6788 11.8568 27.6788 11.0874C27.6788 10.2733 27.4374 9.71257 26.8214 9.09567C25.6502 7.92306 24.0798 7.92306 22.9086 9.09567C21.7467 10.2592 21.7467 11.7352 22.9086 12.8987C23.5856 13.5766 24.079 13.7574 25.2516 13.7574H26.0709L26.0732 14.1886C26.0745 14.4259 26.1768 16.069 26.3006 17.8401C26.4244 19.6112 26.5268 21.2802 26.528 21.5491L26.5303 22.0379H25.6711C24.8273 22.0379 24.8107 22.0322 24.7423 21.7216C24.384 20.0943 23.9129 19.3169 22.3904 17.8401C20.2162 15.7312 19.3566 13.7914 19.358 10.9972C19.359 8.93167 19.7954 7.45429 20.8745 5.86363C21.4641 4.99452 22.8426 3.68574 23.7493 3.13417C24.5572 2.64274 26.0344 2.07357 26.9134 1.91486C27.7446 1.7649 30.015 1.86599 30.8331 2.08956ZM25.507 10.2924C25.7134 10.4598 25.7875 10.6646 25.8398 11.2125L25.9072 11.9173H25.1798C24.5609 11.9173 24.4107 11.8753 24.1707 11.6349C23.3341 10.7972 24.5827 9.54293 25.507 10.2924ZM32.7948 10.3595C32.9726 10.5374 33.0768 10.7732 33.0768 10.9972C33.0768 11.2212 32.9726 11.457 32.7948 11.6349C32.5549 11.8753 32.4047 11.9173 31.7857 11.9173H31.0584L31.1257 11.2125C31.1781 10.6646 31.2521 10.4598 31.4585 10.2924C31.84 9.98307 32.4496 10.0137 32.7948 10.3595ZM29.0602 13.9011C29.0725 14.4618 28.5349 22.0379 28.4828 22.0379C28.4306 22.0379 27.893 14.4618 27.9053 13.9011C27.9075 13.8057 28.1016 13.7574 28.4828 13.7574C28.864 13.7574 29.0581 13.8057 29.0602 13.9011ZM12.4333 18.5264C14.6111 18.9885 16.4106 20.6673 17.183 22.9579C17.4802 23.8389 17.4792 25.7621 17.1812 26.6382C16.6636 28.1597 16.0429 29.0224 14.736 30.0368C13.6908 30.8482 13.1649 31.5649 12.9678 32.4469C12.8267 33.0782 12.8264 33.0785 12.3855 33.0785H11.9444V30.2173V27.3561L12.2928 27.2116C13.0649 26.8914 13.782 25.729 13.782 24.798C13.782 23.373 12.4487 22.0379 11.0256 22.0379C9.60248 22.0379 8.26919 23.373 8.26919 24.798C8.26919 25.729 8.98632 26.8914 9.75834 27.2116L10.1068 27.3561V30.2173V33.0785H9.65555H9.2043L9.07337 32.4472C8.90075 31.6145 8.369 30.8469 7.52267 30.2088C5.57849 28.7428 4.60249 26.931 4.59595 24.7749C4.59101 23.1541 5.31008 21.4455 6.4889 20.2765C8.09898 18.68 10.2179 18.0562 12.4333 18.5264ZM47.3477 18.5264C49.5255 18.9885 51.3249 20.6673 52.0974 22.9579C52.3945 23.8389 52.3936 25.7621 52.0956 26.6382C51.5779 28.1597 50.9573 29.0224 49.6504 30.0368C48.6052 30.8482 48.0793 31.5649 47.8822 32.4469C47.741 33.0782 47.7408 33.0785 47.2999 33.0785H46.8588V30.2173V27.3561L47.2072 27.2116C47.9792 26.8914 48.6964 25.729 48.6964 24.798C48.6964 23.373 47.3631 22.0379 45.94 22.0379C45.2176 22.0379 44.6358 22.3009 44.041 22.8965C43.2346 23.7042 43.0042 24.5742 43.3186 25.6253C43.4835 26.1765 44.1995 27.0153 44.6727 27.2116L45.0212 27.3561V30.2173V33.0785H44.5699H44.1187L43.9877 32.4472C43.8151 31.6145 43.2834 30.8469 42.437 30.2088C40.4929 28.7428 39.5169 26.931 39.5103 24.7749C39.5054 23.1541 40.2245 21.4455 41.4033 20.2765C43.0134 18.68 45.1322 18.0562 47.3477 18.5264ZM11.6624 24.1603C11.8402 24.3382 11.9444 24.574 11.9444 24.798C11.9444 25.0221 11.8402 25.2578 11.6624 25.4358C11.4848 25.6138 11.2493 25.7181 11.0256 25.7181C10.8019 25.7181 10.5664 25.6138 10.3887 25.4358C10.211 25.2578 10.1068 25.0221 10.1068 24.798C10.1068 24.574 10.211 24.3382 10.3887 24.1603C10.5664 23.9823 10.8019 23.878 11.0256 23.878C11.2493 23.878 11.4848 23.9823 11.6624 24.1603ZM32.158 24.5259C32.158 25.5242 31.9515 26.0477 31.3005 26.6996C30.574 27.4271 30.1437 27.5582 28.4828 27.5582C26.8218 27.5582 26.3916 27.4271 25.665 26.6996C25.0141 26.0477 24.8076 25.5242 24.8076 24.5259V23.878H28.4828H32.158V24.5259ZM46.5768 24.1603C47.1466 24.7308 46.7429 25.7181 45.94 25.7181C45.4678 25.7181 45.0212 25.2708 45.0212 24.798C45.0212 24.3252 45.4678 23.878 45.94 23.878C46.1637 23.878 46.3991 23.9823 46.5768 24.1603ZM36.6371 33.2356C36.6371 33.322 36.4557 33.7558 36.234 34.1996C35.7438 35.1808 35.0541 35.8453 34.0162 36.3363C33.2701 36.6894 33.1979 36.7006 31.3827 36.7409C29.7994 36.7761 29.5164 36.7568 29.5164 36.6135C29.5164 36.2351 30.3501 34.8055 30.828 34.3644C31.3882 33.8472 32.2734 33.359 32.9327 33.2034C33.1699 33.1474 34.1004 33.0965 35.0005 33.09C36.3128 33.0808 36.6371 33.1097 36.6371 33.2356ZM12.8632 35.5564C12.8632 36.0802 12.8128 36.2447 12.5812 36.4764C12.3158 36.7422 12.2249 36.7588 11.0256 36.7588C9.82633 36.7588 9.73537 36.7422 9.46995 36.4764C9.23841 36.2447 9.18799 36.0802 9.18799 35.5564V34.9187H11.0256H12.8632V35.5564ZM25.6556 35.0585C26.1694 35.2105 27.3343 36.2655 27.3343 36.5788C27.3343 36.7325 27.1234 36.7588 25.8833 36.7588C24.0484 36.7588 23.6506 36.642 22.8838 35.8788C21.9673 34.9666 22.0097 34.9187 23.7319 34.9187C24.5354 34.9187 25.3939 34.9811 25.6556 35.0585ZM47.7776 35.5564C47.7776 36.0802 47.7271 36.2447 47.4956 36.4764C47.2302 36.7422 47.1392 36.7588 45.94 36.7588C44.7407 36.7588 44.6497 36.7422 44.3843 36.4764C44.1528 36.2447 44.1024 36.0802 44.1024 35.5564V34.9187H45.94H47.7776V35.5564ZM20.0987 41.5161C20.0987 41.6025 19.9173 42.0363 19.6956 42.4801C19.2057 43.4607 18.5164 44.1251 17.4779 44.6178L16.7107 44.9818L14.3849 45.0208C12.4087 45.0539 12.0592 45.0346 12.0592 44.8924C12.0592 44.5154 12.894 43.0851 13.3708 42.6449C13.9311 42.1278 14.8162 41.6395 15.4756 41.4839C15.7127 41.4279 16.85 41.377 18.0027 41.3705C19.7033 41.3612 20.0987 41.3887 20.0987 41.5161ZM55.0131 41.5161C55.0131 41.6025 54.8316 42.0363 54.61 42.4801C54.12 43.4607 53.4308 44.1251 52.3922 44.6178L51.625 44.9818L49.2993 45.0208C47.3231 45.0539 46.9736 45.0346 46.9736 44.8924C46.9736 44.5154 47.8083 43.0851 48.2852 42.6449C48.8454 42.1278 49.7306 41.6395 50.3899 41.4839C50.6271 41.4279 51.7642 41.377 52.9171 41.3705C54.6177 41.3612 55.0131 41.3887 55.0131 41.5161ZM34.6847 42.4591C34.6847 42.7724 33.5197 43.8273 33.006 43.9794C32.7443 44.0568 31.8858 44.1192 31.0823 44.1192C29.8421 44.1192 29.6313 44.093 29.6313 43.9392C29.6313 43.6595 30.7905 42.5711 31.2392 42.4294C31.4603 42.3597 32.3259 42.2973 33.1629 42.2908C34.4722 42.2807 34.6847 42.3043 34.6847 42.4591ZM7.37107 48.2209C8.40965 48.7136 9.09887 49.378 9.58882 50.3586C9.81048 50.8024 9.99194 51.2408 9.99194 51.3328C9.99194 51.4749 9.64245 51.4943 7.66623 51.4611L5.34052 51.4222L4.57332 51.0582C3.53474 50.5655 2.84552 49.9011 2.35557 48.9205C2.13391 48.4767 1.95245 48.0383 1.95245 47.9463C1.95245 47.8042 2.30194 47.7848 4.27816 47.818L6.60387 47.8569L7.37107 48.2209ZM42.2854 48.2209C43.324 48.7136 44.0132 49.378 44.5032 50.3586C44.7248 50.8024 44.9063 51.2408 44.9063 51.3328C44.9063 51.4749 44.5568 51.4943 42.5806 51.4611L40.2549 51.4222L39.4877 51.0582C38.4491 50.5655 37.7599 49.9011 37.2699 48.9205C37.0483 48.4767 36.8668 48.0383 36.8668 47.9463C36.8668 47.8042 37.2163 47.7848 39.1925 47.818L41.5182 47.8569L42.2854 48.2209ZM25.6556 49.7794C26.1694 49.9314 27.3343 50.9864 27.3343 51.2997C27.3343 51.4534 27.1234 51.4797 25.8833 51.4797C24.0484 51.4797 23.6506 51.3629 22.8838 50.5997C21.9673 49.6875 22.0097 49.6396 23.7319 49.6396C24.5354 49.6396 25.3939 49.702 25.6556 49.7794ZM0 56.0799V57H0.918799H1.8376V56.0799V55.1599H0.918799H0V56.0799ZM55.1279 56.0799V57H56.0467H56.9655V56.0799V55.1599H56.0467H55.1279V56.0799Z" fill="#2966FF"/>
</svg>
