<svg width="80" height="80" viewBox="0 0 80 80" fill="none" xmlns="http://www.w3.org/2000/svg">
<circle cx="40" cy="40" r="40" fill="white"/>
<path d="M46.1279 64.5534L22.6469 58.2072C20.2051 57.5471 20.5142 56.3954 23.3373 55.6292C26.1604 54.8679 30.4259 54.786 32.878 55.4461L56.3486 61.802C58.7905 62.4621 58.4917 63.6138 55.6686 64.3751C52.8353 65.1317 48.5697 65.2136 46.1279 64.5534Z" fill="#D1EBFF"/>
<path fill-rule="evenodd" clip-rule="evenodd" d="M63.4028 28.1596L38.7815 52.781L22.1602 36.1596L26.4028 31.917L38.7815 44.2957L59.1602 23.917L63.4028 28.1596Z" fill="#D1EBFF" stroke="#03336E"/>
<path d="M17.3789 37.6215L21.6215 33.3789L26.4031 31.917L22.1604 36.1596L17.3789 37.6215Z" fill="#D1EBFF" stroke="#03336E" stroke-linejoin="round"/>
<path d="M34.0002 54.2433L17.3789 37.622L22.1604 36.1602L38.7818 52.7815L34.0002 54.2433Z" fill="#D1EBFF" stroke="#03336E" stroke-linejoin="round"/>
<path d="M21.6211 33.3789L33.9998 45.7575L38.7813 44.2957L26.4026 31.917L21.6211 33.3789Z" fill="#D1EBFF" stroke="#03336E" stroke-linejoin="round"/>
<path d="M34 45.7575L54.3787 25.3789L59.1602 23.917L38.7815 44.2957L34 45.7575Z" fill="#D1EBFF" stroke="#03336E" stroke-linejoin="round"/>
<path d="M58.6213 29.622L34 54.2433L38.7815 52.7815L63.4028 28.1602L58.6213 29.622Z" fill="#D1EBFF" stroke="#03336E" stroke-linejoin="round"/>
<path d="M54.3789 25.3789L58.6215 29.6215L63.4031 28.1596L59.1604 23.917L54.3789 25.3789Z" fill="#D1EBFF" stroke="#03336E" stroke-linejoin="round"/>
<path fill-rule="evenodd" clip-rule="evenodd" d="M58.6215 29.6215L34.0002 54.2429L17.3789 37.6215L21.6215 33.3789L34.0002 45.7576L54.3789 25.3789L58.6215 29.6215Z" fill="white" stroke="#03336E"/>
</svg>
